<?xml version="1.0" encoding="UTF-8"?>
<!DOCTYPE svg PUBLIC "-//W3C//DTD SVG 1.1//EN" "http://www.w3.org/Graphics/SVG/1.1/DTD/svg11.dtd">
<!-- Creator: CorelDRAW 2019 (64 Bit) -->
<svg xmlns="http://www.w3.org/2000/svg" xml:space="preserve" width="39.7378mm" height="18.3184mm" version="1.1" style="shape-rendering:geometricPrecision; text-rendering:geometricPrecision; image-rendering:optimizeQuality; fill-rule:evenodd; clip-rule:evenodd"
viewBox="0 0 91989.56 42405.51"
 xmlns:xlink="http://www.w3.org/1999/xlink">
 <defs>
  <style type="text/css">
   <![CDATA[
    .fil1 {fill:#FEFEFE}
    .fil0 {fill:#E3E3E3}
    .fil5 {fill:#22384F}
    .fil6 {fill:#FEFEFE;fill-rule:nonzero}
    .fil2 {fill:#2B2A29;fill-rule:nonzero}
    .fil4 {fill:#E31E25;fill-rule:nonzero}
    .fil3 {fill:#252322;fill-rule:nonzero}
   ]]>
  </style>
 </defs>
 <g id="Camada_x0020_1">
  <metadata id="CorelCorpID_0Corel-Layer"/>
  <g id="_2373544658736">
   <polygon class="fil0" points="3111.24,3002.44 89138.74,3002.44 89138.74,39190.79 2967.49,39190.79 "/>
   <path class="fil1" d="M3099.67 3973.09l1796.37 -970.64 1696.37 0 -3492.74 1887.35 0 -916.71zm0 2444.55l6319.94 -3415.19 1696.37 0 -8016.31 4331.67 0 -916.47zm0 2444.32l10843.52 -5859.51 1696.37 0 -12539.88 6776.21 0 -916.71zm0 2444.32l15366.86 -8303.83 1696.37 0 -17063.23 9220.53 0 -916.71zm0 2444.32l19890.43 -10748.14 1696.37 0 -21586.8 11664.85 0 -916.71zm0 2444.55l24414 -13192.69 1696.37 0 -26110.37 14109.16 0 -916.47zm0 2444.32l28937.57 -15637.01 1696.37 0 -30633.94 16553.71 0 -916.71zm0 2444.55l33461.38 -18081.56 1696.14 0 -35157.51 18998.03 0 -916.47zm0 2444.32l37984.72 -20525.87 1696.37 0 -39681.08 21442.58 0 -916.71zm0 2444.32l42508.06 -22970.19 1696.37 0 -44204.43 23886.66 0 -916.47zm0 2444.55l47031.86 -25414.74 1696.37 0 -48728.23 26331.21 0 -916.47zm0 2444.09l51555.2 -27858.82 1696.37 0 -53251.57 28775.53 0 -916.71zm0 2444.55l56078.77 -30303.37 1696.14 0 -57774.91 31219.85 0 -916.47zm0 2444.32l60602.34 -32747.69 1696.37 0 -62298.71 33664.39 0 -916.71zm0 2444.32l65125.68 -35192 1696.37 0 -66822.05 36108.71 0 -916.71zm2679.98 996.34l66969.28 -36188.34 1696.37 0 -66969.28 36188.34 -1696.37 0zm4523.57 0l66969.51 -36188.34 1696.14 0 -66969.51 36188.34 -1696.14 0zm4523.34 0l66969.51 -36188.34 1696.37 0 -66969.51 36188.34 -1696.37 0zm4523.8 0l66969.51 -36188.34 1696.37 0 -66969.51 36188.34 -1696.37 0zm4523.57 0l65264.81 -35267.24 0 916.71 -63568.44 34350.53 -1696.37 0zm4523.34 0l60741.47 -32822.92 0 916.47 -59045.33 31906.45 -1696.14 0zm4523.8 0l56217.67 -30378.37 0 916.47 -54521.53 29461.9 -1696.14 0zm4523.34 0l51694.33 -27934.06 0 916.47 -49998.19 27017.58 -1696.14 0zm4523.57 0l47170.75 -25489.74 0 916.47 -45474.62 24573.27 -1696.14 0zm4523.8 0l42646.95 -23045.19 0 916.47 -40951.05 22128.72 -1695.91 0zm4523.34 0l38123.61 -20600.88 0 916.47 -36427.47 19684.4 -1696.14 0zm4523.11 0l33600.5 -18156.79 0 916.71 -31904.13 17240.08 -1696.37 0zm4523.8 0l29076.7 -15712.24 0 916.71 -27380.33 14795.54 -1696.37 0zm4523.34 0l24553.36 -13267.93 0 916.71 -22856.99 12351.22 -1696.37 0zm4523.8 0l20029.55 -10823.38 0 916.71 -18333.19 9906.67 -1696.37 0zm4523.34 0l15506.21 -8379.06 0 916.71 -13809.61 7462.35 -1696.6 0zm4523.57 0l10982.64 -5934.74 0 916.71 -9286.27 5018.04 -1696.37 0zm4523.8 0l6458.84 -3490.19 0 916.71 -4762.47 2573.49 -1696.37 0zm4523.34 0l1935.5 -1045.88 0 916.71 -239.13 129.17 -1696.37 0zm-86624.98 -39190.79l91411.29 0 0 42405.51 -91869.18 0c-39.59,-14135.09 -75.23,-28270.41 -120.38,-42405.51l578.27 0zm90253.84 1157.46l-89675.8 0 113.66 40090.59 89562.14 0 0 -40090.59z"/>
   <path class="fil2" d="M29004.47 10057.6l-504.42 0 -971.34 -4439.54 603.96 0 622.48 3013.79 623.87 -3013.79 602.8 0 -977.36 4439.54zm3615.66 0l0 -4439.54 1774.84 0 0 535.44 -1177.13 0 0 1320.19 1076.43 0 0 529.19 -1076.43 0 0 1500.76 1177.13 0 0 553.96 -1774.84 0zm5202.77 -2509.37l186.81 0c242.83,0 415.06,-56.95 515.76,-169.91 100.47,-113.2 150.47,-314.6 150.47,-602.11 0,-238.67 -47.69,-404.65 -144.45,-497.01 -96.3,-92.37 -276.86,-137.97 -540.53,-137.97l-168.06 0 0 1407zm0 342.61l0 2166.76 -597.71 0 0 -4439.54 723.18 0c480.58,0 822.03,89.36 1026.43,267.84 203.48,178.48 305.11,475.25 305.11,891.24 0,329.18 -69.45,584.52 -209.5,768.09 -139.36,183.8 -347.7,292.61 -625.03,326.87l1052.36 2185.51 -641.23 0 -1015.09 -2166.76 -18.52 0zm4288.38 2166.76l0 -4439.54 1774.61 0 0 535.44 -1176.9 0 0 1320.19 1076.2 0 0 529.19 -1076.2 0 0 1500.76 1176.9 0 0 553.96 -1774.61 0zm5578.25 -3292.73l-401.64 1923 799.11 0 -397.47 -1923zm-1322.28 3292.73l1038.93 -4439.54 562.52 0 1038.93 4439.54 -605.12 0 -211.81 -871.56 -1011.85 0 -206.26 871.56 -605.35 0zm5888.68 -572.71l310.2 0c337.51,0 574.1,-121.3 711.14,-364.14 136.81,-243.99 205.33,-673.64 205.33,-1292.18 0,-615.54 -67.36,-1044.95 -203.25,-1286.86 -135.89,-241.68 -373.63,-363.21 -713.22,-363.21l-310.2 0 0 3306.39zm-603.96 572.71l0 -4439.54 789.85 0c603.96,0 1029.44,165.98 1275.52,497.01 245.84,331.03 369.23,904.9 369.23,1719.75 0,816.7 -123.38,1391.49 -369.23,1723.68 -246.08,333.12 -671.56,499.1 -1275.52,499.1l-789.85 0zm5752.79 -2229.03c0,628.96 50.93,1072.04 153.48,1330.38 102.78,258.34 273.16,388.21 512.75,388.21 236.58,0 404.65,-122.46 501.18,-368.53 97.69,-244.92 146.3,-695.17 146.3,-1350.06 0,-638.22 -49.77,-1083.38 -149.31,-1335.47 -98.62,-251.4 -266.68,-376.87 -504.42,-376.87 -239.59,0 -408.81,126.63 -509.51,379.88 -100.7,254.18 -150.47,698.41 -150.47,1332.46zm-603.96 13.66c0,-812.77 98.62,-1396.12 295.85,-1749.84 197.93,-353.95 520.86,-530.35 968.1,-530.35 445.39,0 766.93,175.24 963,527.11 196.3,351.87 294.69,936.15 294.69,1753.08 0,813.46 -98.38,1394.74 -294.69,1745.44 -196.07,350.71 -517.61,526.18 -963,526.18 -447.24,0 -770.17,-175.47 -968.1,-526.18 -197.23,-350.71 -295.85,-931.98 -295.85,-1745.44zm5983.12 -293.99l186.81 0c242.83,0 415.06,-56.95 515.76,-169.91 100.47,-113.2 150.47,-314.6 150.47,-602.11 0,-238.67 -47.69,-404.65 -144.22,-497.01 -96.53,-92.37 -277.1,-137.97 -540.76,-137.97l-168.06 0 0 1407zm0 342.61l0 2166.76 -597.71 0 0 -4439.54 723.18 0c480.58,0 822.03,89.36 1026.43,267.84 203.48,178.48 305.11,475.25 305.11,891.24 0,329.18 -69.45,584.52 -209.5,768.09 -139.36,183.8 -347.7,292.61 -625.03,326.87l1052.36 2185.51 -641.23 0 -1014.86 -2166.76 -18.75 0z"/>
   <path class="fil3" d="M19380.22 16118.05c-254.64,-138.2 -495.16,-232.65 -724.34,-290.75 -225.7,-54.17 -458.82,-83.11 -691.7,-83.11 -1019.49,0 -1835.03,482.43 -2453.81,1451.68 -619.01,969.49 -928.51,2254.49 -928.51,3855.49 0,1027.13 185.66,1789.66 560.67,2287.13 371.31,497.24 942.86,744.01 1711.18,744.01 185.66,0 385.66,-18.29 604.19,-58.1 214.82,-39.82 444.46,-97.92 688.46,-174.31l-662.99 3739.05c-298.16,123.62 -622.48,210.66 -972.03,268.99 -345.85,53.94 -746.33,83.11 -1194.03,83.11 -1754.94,0 -3098.51,-511.6 -4026.79,-1531.78 -928.51,-1020.18 -1391.03,-2501.26 -1391.03,-4443.48 0,-3042.03 702.81,-5488.89 2111.66,-7343.83 1409.32,-1854.71 3273.06,-2780.44 5599.78,-2780.44 425.94,0 844.94,36.11 1249.13,112.27 403.95,72.92 808.14,181.49 1204.68,323.16l-684.52 3840.9zm1841.05 -3989.75l4587.69 0 436.82 4762.93 1918.83 -4762.93 4598.34 0 -5079.15 9293.22 -979.21 6233.14 -4343.7 0 1004.9 -6233.14 -2144.54 -9293.22zm10181.68 15526.35l2475.8 -15526.35 4019.38 0c1948,0 3349.68,279.64 4201.8,838.46 855.36,562.76 1281.54,1474.14 1281.54,2733.45 0,1020.18 -277.56,1848.69 -833.83,2479.5 -552.57,627.11 -1387.33,1067.41 -2493.86,1306.77 815.54,225.47 1448.9,628.27 1893.37,1201.67 444,573.87 666,1270.66 666,2083.65 0,729.89 -153.02,1419.5 -458.82,2069.3 -306.03,649.8 -735.22,1194.5 -1292.18,1633.63 -509.98,417.38 -1114.17,718.78 -1805.86,903.97 -695.63,184.96 -1622.29,275.94 -2778.36,275.94l-4874.98 0zm4809.46 -3245.51c72.69,14.58 145.84,25.46 225.7,32.64 76.62,7.41 175.01,11.11 298.62,11.11 509.74,0 900.27,-171.54 1165.1,-512.06 265.06,-340.52 400.48,-827.81 400.48,-1466.5 0,-490.07 -119.91,-856.75 -363.9,-1100.05 -240.29,-243.3 -606.04,-366.68 -1096.11,-366.68l-127.32 0 -502.57 3401.53zm961.38 -6294.71c54.63,7.18 116.44,10.65 178.48,14.82 65.51,3.47 163.66,7.18 298.16,7.18 484.51,0 867.4,-139.13 1147.04,-410.2 279.41,-271.54 422.47,-642.62 422.47,-1110.93 0,-395.85 -112.97,-697.25 -334.97,-896.57 -225.7,-203.48 -553.5,-305.11 -986.85,-305.11 -36.34,0 -87.97,4.4 -148.85,10.65 -65.28,6.94 -113.2,11.34 -138.66,11.34l-436.82 2678.82zm11474.1 4359.91c0,581.04 77.55,1006.52 232.88,1270.66 155.33,263.44 407.66,399.32 750.03,399.32 302.33,0 569.47,-121.07 793.78,-363.21 220.84,-238.44 422.24,-624.33 600.72,-1157.92 236.82,-686.37 427.33,-1518.58 571.78,-2494.09 144.22,-971.57 218.53,-1898.46 218.53,-2777.2 0,-580.58 -76.62,-1008.84 -226.17,-1281.3 -149.31,-272.23 -378.49,-410.2 -691.7,-410.2 -334.97,0 -615.3,119.91 -848.18,355.57 -229.41,239.83 -425.94,617.16 -589.84,1143.57 -236.58,715.08 -429.65,1564.88 -582.43,2552.42 -153.02,983.38 -229.41,1905.64 -229.41,2762.39zm524.33 5488.89c-1474.6,0 -2659.14,-531.27 -3553.62,-1593.59 -894.48,-1062.78 -1343.34,-2479.74 -1343.34,-4243.7 0,-1441.26 185.66,-2839.01 560.67,-4200.18 371.31,-1361.4 877.35,-2504.97 1518.35,-3427.23 625.95,-892.63 1350.52,-1557.24 2170,-1996.38 822.49,-439.14 1758.18,-660.44 2810.54,-660.44 1499.83,0 2695.48,523.63 3575.15,1567.89 880.13,1044.49 1321.82,2468.62 1321.82,4269.16 0,1448.67 -185.66,2842.48 -553.5,4189.3 -371.31,1350.52 -880.82,2494.09 -1525.3,3437.65 -604.66,885.92 -1321.82,1550.07 -2151.71,1993.37 -826.66,442.61 -1769.52,664.15 -2829.06,664.15zm13112.36 -8912.42l232.88 0c662.99,0 1172.5,-206.49 1525.53,-620.63 356.96,-413.67 535.44,-1012.54 535.44,-1793.36 0,-446.32 -112.97,-773.18 -342.14,-987.08 -226.17,-214.13 -578.96,-319.69 -1055.83,-319.69 -29.17,0 -76.62,3.47 -142.14,11.11 -69.22,7.18 -123.85,10.65 -167.37,10.65l-586.37 3699zm-5730.8 8603.84l2475.8 -15526.35 3670.06 0c2304.5,0 3893.45,303.02 4762.01,903.97 868.56,601.18 1307.23,1629.93 1307.23,3085.78 0,1266.95 -278.02,2310.05 -826.42,3125.6 -548.17,815.08 -1343.34,1353.76 -2384.82,1615.35l1922.54 6795.66 -4609.22 0 -983.14 -6272.95 -979.67 6272.95 -4354.35 0zm18949.18 -8977.7l5566.67 0c-120.14,3147.59 -724.34,5482.18 -1813.04,7002.61 -1088.47,1520.67 -2694.33,2283.66 -4820.34,2283.66 -1649.38,0 -2909.15,-504.65 -3772.15,-1513.95 -863,-1013.01 -1295.89,-2475.8 -1295.89,-4389.08 0,-1495.43 180.1,-2924.2 538.68,-4276.34 358.12,-1351.68 863,-2504.5 1511.18,-3455.7 560.67,-827.81 1263.02,-1452.15 2111.2,-1876.93 844.94,-420.85 1816.98,-631.51 2912.86,-631.51 1365.34,0 2475.8,315.75 3331.39,951.2 859.3,635.21 1397.98,1546.59 1627.62,2729.98l-4001.33 1473.44c-113.2,-486.13 -262.05,-827.35 -440.53,-1023.65 -182.18,-192.14 -433.35,-290.29 -753.5,-290.29 -335.2,0 -626.65,116.44 -874.34,352.1 -251.17,232.42 -461.83,595.16 -640.54,1081.76 -240.29,689.61 -455.57,1572.06 -640.77,2653.82 -185.42,1081.76 -276.86,2011.2 -276.86,2791.55 0,595.4 83.8,1016.48 251.17,1259.78 167.83,243.07 448.17,366.45 848.65,366.45 491.69,0 881.06,-210.19 1179.68,-628.04 294.69,-417.15 465.99,-1012.77 516.69,-1786.19l-1485.02 0 418.54 -3074.67z"/>
   <path class="fil4" d="M20123.31 15534.46c-254.87,-138.2 -495.16,-232.65 -724.57,-290.75 -225.47,-54.17 -458.82,-83.34 -691.7,-83.34 -1019.49,0 -1834.8,482.66 -2453.81,1451.91 -619.01,969.49 -928.51,2254.26 -928.51,3855.49 0,1027.13 185.66,1789.66 560.67,2286.9 371.31,497.47 942.86,744.24 1711.18,744.24 185.66,0 385.66,-18.29 604.19,-58.1 214.82,-39.82 444.46,-97.92 688.46,-174.31l-662.99 3739.05c-298.16,123.62 -622.48,210.66 -971.8,268.76 -345.85,54.17 -746.56,83.34 -1194.03,83.34 -1755.17,0 -3098.51,-511.6 -4027.02,-1531.78 -928.51,-1020.18 -1390.8,-2501.26 -1390.8,-4443.48 0,-3042.03 702.81,-5488.89 2111.66,-7344.06 1409.32,-1854.48 3272.82,-2780.21 5599.54,-2780.21 425.94,0 844.94,36.11 1249.13,112.27 404.18,72.69 808.14,181.49 1204.68,323.16l-684.29 3840.9zm1840.82 -3989.75l4587.69 0 436.82 4762.93 1918.83 -4762.93 4598.34 0 -5079.15 9293.22 -979.21 6232.9 -4343.47 0 1004.67 -6232.9 -2144.54 -9293.22zm10181.68 15526.12l2475.8 -15526.12 4019.38 0c1948,0 3349.68,279.41 4202.03,838.46 855.36,562.76 1281.3,1474.14 1281.3,2733.45 0,1020.18 -277.56,1848.69 -833.83,2479.5 -552.57,627.11 -1387.33,1067.41 -2493.86,1306.77 815.54,225.24 1448.9,628.27 1893.37,1201.67 444,573.87 666,1270.66 666,2083.65 0,729.89 -152.78,1419.5 -458.82,2069.3 -305.8,649.8 -735.22,1194.5 -1292.18,1633.63 -509.98,417.38 -1114.17,718.78 -1805.86,903.74 -695.63,185.19 -1622.06,275.94 -2778.13,275.94l-4875.21 0zm4809.7 -3245.28c72.69,14.58 145.61,25.46 225.47,32.64 76.86,7.41 175.01,11.11 298.86,11.11 509.51,0 900.04,-171.77 1164.86,-512.06 265.06,-340.52 400.48,-827.81 400.48,-1466.5 0,-490.07 -119.68,-856.75 -363.67,-1100.05 -240.52,-243.3 -606.28,-366.91 -1096.34,-366.91l-127.32 0 -502.34 3401.76zm961.15 -6294.71c54.63,7.18 116.67,10.65 178.48,14.58 65.51,3.7 163.66,7.18 298.39,7.18 484.28,0 867.4,-138.89 1146.81,-409.97 279.64,-271.54 422.47,-642.62 422.47,-1110.93 0,-395.85 -112.97,-697.25 -334.97,-896.8 -225.7,-203.48 -553.5,-304.87 -986.85,-304.87 -36.34,0 -87.74,4.4 -148.85,10.65 -65.05,6.94 -112.97,11.11 -138.66,11.11l-436.82 2679.05zm11474.33 4359.91c0,580.81 77.32,1006.52 232.65,1270.66 155.33,263.44 407.89,399.32 750.03,399.32 302.33,0 569.47,-121.07 794.02,-363.21 220.84,-238.44 422.01,-624.33 600.49,-1157.92 236.82,-686.37 427.33,-1518.58 571.78,-2494.09 144.22,-971.57 218.53,-1898.46 218.53,-2777.2 0,-580.58 -76.62,-1009.07 -225.94,-1281.3 -149.54,-272.47 -378.72,-410.2 -691.7,-410.2 -335.2,0 -615.54,119.91 -848.18,355.57 -229.64,239.83 -426.18,617.16 -589.84,1143.57 -236.82,715.08 -429.65,1564.88 -582.66,2552.19 -153.02,983.61 -229.18,1905.87 -229.18,2762.62zm524.33 5488.66c-1474.83,0 -2659.37,-531.04 -3553.85,-1593.35 -894.48,-1062.78 -1343.34,-2479.74 -1343.34,-4243.7 0,-1441.5 185.66,-2839.01 560.67,-4200.41 371.31,-1361.17 877.35,-2504.74 1518.35,-3427 626.18,-892.63 1350.52,-1557.24 2170,-1996.38 822.72,-439.14 1758.18,-660.44 2810.54,-660.44 1499.83,0 2695.48,523.4 3575.38,1567.89 880.13,1044.49 1321.82,2468.62 1321.82,4269.16 0,1448.44 -185.66,2842.48 -553.5,4189.07 -371.54,1350.75 -881.06,2494.32 -1525.53,3437.88 -604.66,885.92 -1321.82,1550.07 -2151.71,1993.14 -826.66,442.84 -1769.52,664.15 -2828.82,664.15zm13112.36 -8912.18l232.65 0c662.99,0 1172.5,-206.49 1525.53,-620.63 356.96,-413.67 535.67,-1012.54 535.67,-1793.36 0,-446.32 -113.2,-773.41 -342.38,-987.08 -225.94,-214.36 -578.96,-319.69 -1055.83,-319.69 -29.17,0 -76.62,3.47 -142.14,11.11 -69.22,7.18 -123.85,10.65 -167.37,10.65l-586.14 3699zm-5731.03 8603.61l2476.03 -15526.12 3669.83 0c2304.5,0 3893.68,303.02 4762.24,903.74 868.56,601.41 1307,1630.16 1307,3086.01 0,1266.95 -278.02,2310.05 -826.19,3125.6 -548.4,815.08 -1343.58,1353.76 -2385.06,1615.35l1922.54 6795.43 -4609.22 0 -983.14 -6272.72 -979.67 6272.72 -4354.35 0zm18949.18 -8977.46l5566.67 0c-120.14,3147.59 -724.34,5481.95 -1812.81,7002.61 -1088.7,1520.67 -2694.56,2283.43 -4820.58,2283.43 -1649.14,0 -2909.15,-504.42 -3772.15,-1513.72 -863,-1013.01 -1295.89,-2475.8 -1295.89,-4389.08 0,-1495.43 180.1,-2924.2 538.68,-4276.34 358.35,-1351.68 863,-2504.5 1511.18,-3455.7 560.67,-827.81 1263.02,-1452.15 2111.2,-1876.93 845.17,-420.85 1817.21,-631.51 2912.86,-631.51 1365.34,0 2476.03,315.75 3331.39,951.2 859.3,635.21 1397.98,1546.59 1627.62,2729.98l-4001.33 1473.44c-112.97,-486.13 -262.05,-827.35 -440.53,-1023.65 -181.95,-192.37 -433.35,-290.29 -753.5,-290.29 -334.97,0 -626.65,116.44 -874.11,352.1 -251.17,232.42 -462.06,595.16 -640.54,1081.76 -240.52,689.61 -455.81,1572.06 -641,2653.82 -185.19,1081.76 -276.63,2011.2 -276.63,2791.55 0,595.4 83.8,1016.48 251.17,1259.78 167.6,242.83 447.94,366.45 848.42,366.45 491.69,0 881.06,-210.43 1179.68,-628.04 294.69,-417.15 465.99,-1013.01 516.92,-1786.19l-1485.25 0 418.54 -3074.67z"/>
   <path class="fil5" d="M9821.02 28921.14l72445.21 0c26.39,0 -26.16,428.26 -117.6,958.37l-853.51 4943.73c-91.44,530.12 -186.81,958.14 -213.43,958.14l-72444.98 0c-26.39,0 25.93,-428.03 117.6,-958.14l853.51 -4943.73c91.44,-530.12 186.81,-958.37 213.2,-958.37z"/>
   <path class="fil6" d="M12634.33 32225.68l209.27 0c252.56,0 432.43,-49.31 539.84,-147 106.95,-98.62 160.65,-261.12 160.65,-489.37 0,-218.99 -56.72,-376.87 -171.3,-473.63 -113.43,-95.84 -303.25,-144.45 -569.01,-144.45l-169.45 0 0 1254.45zm-563.45 2190.83l0 -3905.26 686.6 0c254.41,0 451.87,17.13 594.01,51.16 140.52,33.8 263.9,89.36 368.77,168.06 122,93.06 218.06,216.21 285.2,369.46 67.6,153.48 101.86,323.16 101.86,510.21 0,357.19 -111.35,628.27 -333.35,813.69 -223.16,185.19 -547.94,278.25 -976.2,278.25 -46.07,0 -80.1,-0.69 -102.78,-1.85 -23.38,-0.93 -43.06,-1.62 -60.65,-3.7l0 1719.98 -563.45 0zm3903.41 -2896.42l-378.49 1691.51 753.04 0 -374.55 -1691.51zm-1245.89 2896.42l978.98 -3905.26 530.12 0 979.21 3905.26 -570.39 0 -199.31 -766.93 -953.98 0 -194.68 766.93 -569.93 0zm4153.65 -2207.27l176.16 0c228.94,0 391.22,-50.23 486.13,-149.54 94.91,-99.77 141.9,-276.86 141.9,-529.88 0,-209.73 -44.91,-355.8 -136.12,-437.29 -90.98,-81.02 -261.12,-121.3 -509.51,-121.3l-158.57 0 0 1238.02zm0 301.17l0 1906.1 -563.45 0 0 -3905.26 681.97 0c452.8,0 774.57,78.71 967.4,235.66 191.67,156.95 287.51,418.07 287.51,784.06 0,289.36 -65.51,513.91 -197.69,675.49 -131.02,161.58 -327.56,257.65 -588.91,287.74l991.94 1922.3 -604.42 0 -956.75 -1906.1 -17.59 0zm4400.42 1818.36c-93.75,46.76 -187.74,81.48 -283.58,103.48 -95.84,22.69 -196.54,33.57 -304.18,33.57 -428.26,0 -748.41,-163.2 -960.69,-489.37 -212.28,-326.87 -317.61,-818.78 -317.61,-1475.99 0,-671.09 113.43,-1178.52 339.37,-1522.52 226.86,-344.23 561.37,-515.99 1005.6,-515.99 96.53,0 188.67,9.26 274.78,26.62 85.88,18.06 168.06,43.75 246.31,77.55l0 498.4c-80.33,-37.27 -157.41,-64.82 -230.8,-83.11 -73.38,-17.36 -142.6,-26.62 -208.34,-26.62 -300.24,0 -519.47,122.46 -657.2,368.07 -137.97,245.38 -206.26,635.44 -206.26,1170.19 0,499.56 65.51,869.02 196.3,1109.07 131.26,240.06 333.58,359.74 607.43,359.74 78.48,0 157.65,-11.57 237.74,-36.34 80.1,-23.84 167.37,-61.35 261.12,-111.58l0 514.84zm1165.79 87.74l0 -3905.26 1672.76 0 0 471.08 -1109.54 0 0 1161.16 1014.39 0 0 465.53 -1014.39 0 0 1319.96 1109.54 0 0 487.52 -1672.76 0zm2949.66 0l0 -3905.26 563.45 0 0 3905.26 -563.45 0zm2564.46 -2207.27l176.16 0c228.94,0 391.22,-50.23 486.13,-149.54 94.68,-99.77 141.67,-276.86 141.67,-529.88 0,-209.73 -44.91,-355.8 -135.89,-437.29 -90.98,-81.02 -261.35,-121.3 -509.51,-121.3l-158.57 0 0 1238.02zm0 301.17l0 1906.1 -563.45 0 0 -3905.26 681.97 0c452.8,0 774.34,78.71 967.4,235.66 191.67,156.95 287.28,418.07 287.28,784.06 0,289.36 -65.51,513.91 -197.46,675.49 -131.02,161.58 -327.79,257.65 -588.91,287.74l991.94 1922.3 -604.42 0 -956.75 -1906.1 -17.59 0zm3115.18 -54.63c0,553.26 47.92,942.86 144.91,1170.19 96.76,227.32 257.19,341.45 483.12,341.45 222.93,0 381.27,-107.64 472.47,-324.09 91.67,-215.29 137.51,-611.6 137.51,-1187.55 0,-561.37 -46.53,-953.28 -140.52,-1174.82 -93.06,-221.31 -251.63,-331.5 -475.25,-331.5 -226.17,0 -385.43,111.35 -480.34,334.04 -94.91,223.62 -141.9,614.38 -141.9,1172.27zm-569.01 11.81c0,-714.85 92.6,-1227.83 278.48,-1539.19 186.81,-311.12 491.22,-466.46 912.77,-466.46 419.46,0 722.72,154.17 907.45,463.91 184.96,309.27 278.02,823.18 278.02,1541.73 0,715.77 -93.06,1226.9 -278.02,1535.48 -184.73,308.58 -487.98,462.75 -907.45,462.75 -421.55,0 -725.96,-154.17 -912.77,-462.75 -185.89,-308.58 -278.48,-819.71 -278.48,-1535.48zm6517.41 1444.97l292.84 0c317.61,0 540.76,-106.72 669.94,-320.15 128.94,-214.59 193.3,-592.62 193.3,-1136.62 0,-541.46 -63.43,-919.25 -191.67,-1132.22 -128.01,-212.51 -351.87,-319.46 -671.56,-319.46l-292.84 0 0 2908.46zm-569.24 503.96l0 -3905.26 744.48 0c569.24,0 970.41,146.07 1201.9,437.29 231.95,291.22 348.16,795.87 348.16,1512.8 0,718.32 -116.21,1223.89 -348.16,1516.04 -231.49,293.07 -632.67,439.14 -1201.9,439.14l-744.48 0zm4400.19 -2896.42l-378.49 1691.51 753.04 0 -374.55 -1691.51zm-1246.12 2896.42l979.21 -3905.26 530.12 0 978.98 3905.26 -570.39 0 -199.31 -766.93 -953.74 0 -194.68 766.93 -570.16 0zm7585.04 -87.74c-93.52,46.76 -187.51,81.48 -283.58,103.48 -95.61,22.69 -196.3,33.57 -304.18,33.57 -428.26,0 -748.18,-163.2 -960.46,-489.37 -212.28,-326.87 -317.61,-818.78 -317.61,-1475.99 0,-671.09 113.2,-1178.52 339.37,-1522.52 226.86,-344.23 561.37,-515.99 1005.37,-515.99 96.76,0 188.9,9.26 274.78,26.62 86.11,18.06 168.29,43.75 246.31,77.55l0 498.4c-80.1,-37.27 -157.18,-64.82 -230.8,-83.11 -73.38,-17.36 -142.6,-26.62 -208.34,-26.62 -300.01,0 -519.24,122.46 -656.97,368.07 -137.97,245.38 -206.49,635.44 -206.49,1170.19 0,499.56 65.51,869.02 196.54,1109.07 131.26,240.06 333.35,359.74 607.43,359.74 78.24,0 157.65,-11.57 237.74,-36.34 80.1,-23.84 167.37,-61.35 260.89,-111.58l0 514.84zm1629.7 -1873c0,553.26 47.92,942.86 144.68,1170.19 96.99,227.32 257.19,341.45 483.35,341.45 222.69,0 381.27,-107.64 472.24,-324.09 91.9,-215.29 137.74,-611.6 137.74,-1187.55 0,-561.37 -46.76,-953.28 -140.75,-1174.82 -93.06,-221.31 -251.63,-331.5 -475.25,-331.5 -225.94,0 -385.43,111.35 -480.34,334.04 -94.68,223.62 -141.67,614.38 -141.67,1172.27zm-569.24 11.81c0,-714.85 92.83,-1227.83 278.48,-1539.19 186.81,-311.12 491.22,-466.46 912.77,-466.46 419.46,0 722.72,154.17 907.45,463.91 184.96,309.27 278.02,823.18 278.02,1541.73 0,715.77 -93.06,1226.9 -278.02,1535.48 -184.73,308.58 -487.98,462.75 -907.45,462.75 -421.55,0 -725.96,-154.17 -912.77,-462.75 -185.66,-308.58 -278.48,-819.71 -278.48,-1535.48zm3514.96 1948.93l357.89 -3905.26 510.44 0 568.31 2704.05 581.97 -2704.05 492.85 0 364.14 3905.26 -521.55 0 -168.99 -2738.54 -559.51 2738.54 -381.5 0 -558.59 -2738.54 -169.22 2738.54 -516.23 0zm4094.62 -1040.55l0 -2864.71 557.66 0 0 2907.3c0,187.28 45.14,326.17 134.96,414.6 88.89,89.59 226.86,134.26 412.75,134.26 184.96,0 321.77,-44.68 410.9,-134.26 89.12,-88.43 133.11,-227.32 133.11,-414.6l0 -2907.3 557.43 0 0 2864.71c0,378.95 -87.97,654.43 -265.06,828.74 -177.09,174.31 -456.04,261.12 -838.23,261.12 -382.42,0 -661.37,-86.81 -838.46,-261.12 -176.86,-174.31 -265.06,-449.79 -265.06,-828.74zm3597.14 1040.55l0 -3905.26 522.24 0 1109.54 2712.38 0 -2712.38 533.82 0 0 3905.26 -528.03 0 -1103.52 -2733.91 0 2733.91 -534.05 0zm3591.36 0l0 -3905.26 563.22 0 0 3905.26 -563.22 0zm2570.02 -503.96l292.84 0c317.61,0 540.76,-106.72 669.94,-320.15 129.17,-214.59 193.53,-592.62 193.53,-1136.62 0,-541.46 -63.43,-919.25 -191.91,-1132.22 -128.01,-212.51 -351.87,-319.46 -671.56,-319.46l-292.84 0 0 2908.46zm-569.24 503.96l0 -3905.26 744.71 0c569.24,0 970.18,146.07 1201.9,437.29 231.72,291.22 348.16,795.87 348.16,1512.8 0,718.32 -116.44,1223.89 -348.16,1516.04 -231.72,293.07 -632.67,439.14 -1201.9,439.14l-744.71 0zm4400.19 -2896.42l-378.49 1691.51 753.04 0 -374.55 -1691.51zm-1245.89 2896.42l978.98 -3905.26 530.35 0 978.98 3905.26 -570.39 0 -199.31 -766.93 -953.98 0 -194.45 766.93 -570.16 0zm4159.67 -503.96l292.61 0c317.61,0 540.76,-106.72 669.94,-320.15 129.17,-214.59 193.53,-592.62 193.53,-1136.62 0,-541.46 -63.43,-919.25 -191.67,-1132.22 -128.01,-212.51 -352.1,-319.46 -671.79,-319.46l-292.61 0 0 2908.46zm-569.24 503.96l0 -3905.26 744.48 0c569.24,0 970.18,146.07 1201.9,437.29 231.72,291.22 348.16,795.87 348.16,1512.8 0,718.32 -116.44,1223.89 -348.16,1516.04 -231.72,293.07 -632.67,439.14 -1201.9,439.14l-744.48 0zm3567.74 0l0 -3905.26 1672.76 0 0 471.08 -1109.54 0 0 1161.16 1014.39 0 0 465.53 -1014.39 0 0 1319.96 1109.54 0 0 487.52 -1672.76 0z"/>
  </g>
 </g>
</svg>
