<?xml version="1.0" encoding="UTF-8"?>
<!DOCTYPE svg PUBLIC "-//W3C//DTD SVG 1.1//EN" "http://www.w3.org/Graphics/SVG/1.1/DTD/svg11.dtd">
<!-- Creator: CorelDRAW 2019 (64 Bit) -->
<svg xmlns="http://www.w3.org/2000/svg" xml:space="preserve" width="65.4173mm" height="29.9794mm" version="1.1" style="shape-rendering:geometricPrecision; text-rendering:geometricPrecision; image-rendering:optimizeQuality; fill-rule:evenodd; clip-rule:evenodd"
viewBox="0 0 303.17 138.94"
 xmlns:xlink="http://www.w3.org/1999/xlink">
 <defs>
  <style type="text/css">
   <![CDATA[
    .str0 {stroke:#FEFEFE;stroke-width:2.32;stroke-miterlimit:22.9256}
    .fil0 {fill:none}
    .fil9 {fill:#FEFEFE}
    .fil12 {fill:#FEFEFE}
    .fil5 {fill:#DCCF73}
    .fil2 {fill:#FAF7DE}
    .fil1 {fill:#F6EEB9}
    .fil7 {fill:#AF9B28}
    .fil4 {fill:#5D9439}
    .fil13 {fill:#22384F}
    .fil8 {fill:#FEFEFE;fill-rule:nonzero}
    .fil6 {fill:#FEFEFE;fill-rule:nonzero}
    .fil16 {fill:#2B2A29;fill-rule:nonzero}
    .fil15 {fill:#E31E25;fill-rule:nonzero}
    .fil14 {fill:#252322;fill-rule:nonzero}
    .fil11 {fill:#619833;fill-rule:nonzero}
    .fil10 {fill:#F2F2F4;fill-rule:nonzero}
    .fil3 {fill:#F6EEB9;fill-opacity:0.501961}
   ]]>
  </style>
   <clipPath id="id0">
    <path d="M9.55 9.19l284.93 0 0 119.86 -285.41 0 0.48 -119.86z"/>
   </clipPath>
    <clipPath id="id1">
    </clipPath>
    <clipPath id="id2">
     <path d="M9.55 9.19l284.93 0 0 119.86 -285.41 0 0.48 -119.86z"/>
    </clipPath>
 </defs>
 <g id="Camada_x0020_1">
  <metadata id="CorelCorpID_0Corel-Layer"/>
  <polygon class="fil0 str0" points="1.16,1.16 302.01,1.16 302.01,137.78 1.55,137.78 "/>
  <polygon class="fil1" points="9.55,9.19 294.48,9.19 294.48,129.05 9.08,129.05 "/>
  <g style="clip-path:url(#id0)">
   <g id="_1868323321808">
    <rect class="fil2" x="-538.34" y="-29.06" width="1280.5" height="876.55"/>
    <path class="fil3" d="M-682.82 281.27l1050.13 -567.46 1.27 2.35 -1050.13 567.46 -1.27 -2.35zm3.37 6.27l1050.13 -567.46 1.27 2.35 -1050.13 567.46 -1.27 -2.35zm3.37 6.27l1050.13 -567.46 1.27 2.35 -1050.13 567.46 -1.27 -2.35zm3.37 6.27l1050.13 -567.46 1.27 2.35 -1050.13 567.46 -1.27 -2.35zm3.37 6.27l1050.13 -567.46 1.27 2.35 -1050.13 567.46 -1.27 -2.35zm3.37 6.27l1050.13 -567.46 1.27 2.35 -1050.13 567.46 -1.27 -2.35zm3.37 6.27l1050.13 -567.46 1.27 2.35 -1050.13 567.46 -1.27 -2.35zm3.37 6.27l1050.13 -567.46 1.27 2.35 -1050.13 567.46 -1.27 -2.35zm3.37 6.27l1050.13 -567.46 1.27 2.35 -1050.13 567.46 -1.27 -2.35zm3.37 6.27l1050.13 -567.46 1.27 2.35 -1050.13 567.46 -1.27 -2.35zm3.37 6.27l1050.13 -567.46 1.27 2.35 -1050.13 567.46 -1.27 -2.35zm3.37 6.27l1050.13 -567.46 1.27 2.35 -1050.13 567.46 -1.27 -2.35zm3.37 6.27l1050.13 -567.46 1.27 2.35 -1050.13 567.46 -1.27 -2.35zm3.37 6.27l1050.13 -567.46 1.27 2.35 -1050.13 567.46 -1.27 -2.35zm3.37 6.27l1050.13 -567.46 1.27 2.35 -1050.13 567.46 -1.27 -2.35zm3.37 6.27l1050.13 -567.46 1.27 2.35 -1050.13 567.46 -1.27 -2.35zm3.37 6.27l1050.13 -567.46 1.27 2.35 -1050.13 567.46 -1.27 -2.35zm3.37 6.27l1050.13 -567.46 1.27 2.35 -1050.13 567.46 -1.27 -2.35zm3.37 6.27l1050.13 -567.46 1.27 2.35 -1050.13 567.46 -1.27 -2.35zm3.37 6.27l1050.13 -567.46 1.27 2.35 -1050.13 567.46 -1.27 -2.35zm3.37 6.27l1050.13 -567.46 1.27 2.35 -1050.13 567.46 -1.27 -2.35zm3.37 6.27l1050.13 -567.46 1.27 2.35 -1050.13 567.46 -1.27 -2.35zm3.37 6.27l1050.13 -567.46 1.27 2.35 -1050.13 567.46 -1.27 -2.35zm3.37 6.27l1050.13 -567.46 1.27 2.35 -1050.13 567.46 -1.27 -2.35zm3.37 6.27l1050.13 -567.46 1.27 2.35 -1050.13 567.46 -1.27 -2.35zm3.37 6.27l1050.13 -567.46 1.27 2.35 -1050.13 567.46 -1.27 -2.35zm3.37 6.27l1050.13 -567.46 1.27 2.35 -1050.13 567.46 -1.27 -2.35zm3.37 6.27l1050.13 -567.46 1.27 2.35 -1050.13 567.46 -1.27 -2.35zm3.37 6.27l1050.13 -567.46 1.27 2.35 -1050.13 567.46 -1.27 -2.35zm3.37 6.27l1050.13 -567.46 1.27 2.35 -1050.13 567.46 -1.27 -2.35zm3.37 6.27l1050.13 -567.46 1.27 2.35 -1050.13 567.46 -1.27 -2.35zm3.37 6.27l1050.13 -567.46 1.27 2.35 -1050.13 567.46 -1.27 -2.35zm3.37 6.27l1050.13 -567.46 1.27 2.35 -1050.13 567.46 -1.27 -2.35zm3.37 6.27l1050.13 -567.46 1.27 2.35 -1050.13 567.46 -1.27 -2.35zm3.37 6.27l1050.13 -567.46 1.27 2.35 -1050.13 567.46 -1.27 -2.35zm3.37 6.27l1050.13 -567.46 1.27 2.35 -1050.13 567.46 -1.27 -2.35zm3.37 6.27l1050.13 -567.46 1.27 2.35 -1050.13 567.46 -1.27 -2.35zm3.37 6.27l1050.13 -567.46 1.27 2.35 -1050.13 567.46 -1.27 -2.35zm3.37 6.27l1050.13 -567.46 1.27 2.35 -1050.13 567.46 -1.27 -2.35zm3.37 6.27l1050.13 -567.46 1.27 2.35 -1050.13 567.46 -1.27 -2.35zm3.37 6.27l1050.13 -567.46 1.27 2.35 -1050.13 567.46 -1.27 -2.35zm3.37 6.27l1050.13 -567.46 1.27 2.35 -1050.13 567.46 -1.27 -2.35zm3.37 6.27l1050.13 -567.46 1.27 2.35 -1050.13 567.46 -1.27 -2.35zm3.37 6.27l1050.13 -567.46 1.27 2.35 -1050.13 567.46 -1.27 -2.35zm3.37 6.27l1050.13 -567.46 1.27 2.35 -1050.13 567.46 -1.27 -2.35zm3.37 6.27l1050.13 -567.46 1.27 2.35 -1050.13 567.46 -1.27 -2.35zm3.37 6.27l1050.13 -567.46 1.27 2.35 -1050.13 567.46 -1.27 -2.35zm3.37 6.27l1050.13 -567.46 1.27 2.35 -1050.13 567.46 -1.27 -2.35zm3.37 6.27l1050.13 -567.46 1.27 2.35 -1050.13 567.46 -1.27 -2.35zm3.37 6.27l1050.13 -567.46 1.27 2.35 -1050.13 567.46 -1.27 -2.35zm3.37 6.27l1050.13 -567.46 1.27 2.35 -1050.13 567.46 -1.27 -2.35zm3.37 6.27l1050.13 -567.46 1.27 2.35 -1050.13 567.46 -1.27 -2.35zm3.37 6.27l1050.13 -567.46 1.27 2.35 -1050.13 567.46 -1.27 -2.35zm3.37 6.27l1050.13 -567.46 1.27 2.35 -1050.13 567.46 -1.27 -2.35zm3.37 6.27l1050.13 -567.46 1.27 2.35 -1050.13 567.46 -1.27 -2.35zm3.37 6.27l1050.13 -567.46 1.27 2.35 -1050.13 567.46 -1.27 -2.35zm3.37 6.27l1050.13 -567.46 1.27 2.35 -1050.13 567.46 -1.27 -2.35zm3.37 6.27l1050.13 -567.46 1.27 2.35 -1050.13 567.46 -1.27 -2.35zm3.37 6.27l1050.13 -567.46 1.27 2.35 -1050.13 567.46 -1.27 -2.35zm3.37 6.27l1050.13 -567.46 1.27 2.35 -1050.13 567.46 -1.27 -2.35zm3.37 6.27l1050.13 -567.46 1.27 2.35 -1050.13 567.46 -1.27 -2.35zm3.37 6.27l1050.13 -567.46 1.27 2.35 -1050.13 567.46 -1.27 -2.35zm3.37 6.27l1050.13 -567.46 1.27 2.35 -1050.13 567.46 -1.27 -2.35zm3.37 6.27l1050.13 -567.46 1.27 2.35 -1050.13 567.46 -1.27 -2.35zm3.37 6.27l1050.13 -567.46 1.27 2.35 -1050.13 567.46 -1.27 -2.35zm3.37 6.27l1050.13 -567.46 1.27 2.35 -1050.13 567.46 -1.27 -2.35zm3.37 6.27l1050.13 -567.46 1.27 2.35 -1050.13 567.46 -1.27 -2.35zm3.37 6.27l1050.13 -567.46 1.27 2.35 -1050.13 567.46 -1.27 -2.35zm3.37 6.27l1050.13 -567.46 1.27 2.35 -1050.13 567.46 -1.27 -2.35zm3.37 6.27l1050.13 -567.46 1.27 2.35 -1050.13 567.46 -1.27 -2.35zm3.37 6.27l1050.13 -567.46 1.27 2.35 -1050.13 567.46 -1.27 -2.35zm3.37 6.27l1050.13 -567.46 1.27 2.35 -1050.13 567.46 -1.27 -2.35zm3.37 6.27l1050.13 -567.46 1.27 2.35 -1050.13 567.46 -1.27 -2.35zm3.37 6.27l1050.13 -567.46 1.27 2.35 -1050.13 567.46 -1.27 -2.35zm3.37 6.27l1050.13 -567.46 1.27 2.35 -1050.13 567.46 -1.27 -2.35zm3.37 6.27l1050.13 -567.46 1.27 2.35 -1050.13 567.46 -1.27 -2.35zm3.37 6.27l1050.13 -567.46 1.27 2.35 -1050.13 567.46 -1.27 -2.35zm3.37 6.27l1050.13 -567.46 1.27 2.35 -1050.13 567.46 -1.27 -2.35zm3.37 6.27l1050.13 -567.46 1.27 2.35 -1050.13 567.46 -1.27 -2.35zm3.37 6.27l1050.13 -567.46 1.27 2.35 -1050.13 567.46 -1.27 -2.35zm3.37 6.27l1050.13 -567.46 1.27 2.35 -1050.13 567.46 -1.27 -2.35zm3.37 6.27l1050.13 -567.46 1.27 2.35 -1050.13 567.46 -1.27 -2.35zm3.37 6.27l1050.13 -567.46 1.27 2.35 -1050.13 567.46 -1.27 -2.35zm3.37 6.27l1050.13 -567.46 1.27 2.35 -1050.13 567.46 -1.27 -2.35zm3.37 6.27l1050.13 -567.46 1.27 2.35 -1050.13 567.46 -1.27 -2.35zm3.37 6.27l1050.13 -567.46 1.27 2.35 -1050.13 567.46 -1.27 -2.35zm3.37 6.27l1050.13 -567.46 1.27 2.35 -1050.13 567.46 -1.27 -2.35zm3.37 6.27l1050.13 -567.46 1.27 2.35 -1050.13 567.46 -1.27 -2.35zm3.37 6.27l1050.13 -567.46 1.27 2.35 -1050.13 567.46 -1.27 -2.35zm3.37 6.27l1050.13 -567.46 1.27 2.35 -1050.13 567.46 -1.27 -2.35zm3.37 6.27l1050.13 -567.46 1.27 2.35 -1050.13 567.46 -1.27 -2.35zm3.37 6.27l1050.13 -567.46 1.27 2.35 -1050.13 567.46 -1.27 -2.35zm3.37 6.27l1050.13 -567.46 1.27 2.35 -1050.13 567.46 -1.27 -2.35zm3.37 6.27l1050.13 -567.46 1.27 2.35 -1050.13 567.46 -1.27 -2.35zm3.37 6.27l1050.13 -567.46 1.27 2.35 -1050.13 567.46 -1.27 -2.35zm3.37 6.27l1050.13 -567.46 1.27 2.35 -1050.13 567.46 -1.27 -2.35zm3.37 6.27l1050.13 -567.46 1.27 2.35 -1050.13 567.46 -1.27 -2.35zm3.37 6.27l1050.13 -567.46 1.27 2.35 -1050.13 567.46 -1.27 -2.35zm3.37 6.27l1050.13 -567.46 1.27 2.35 -1050.13 567.46 -1.27 -2.35zm3.37 6.27l1050.13 -567.46 1.27 2.35 -1050.13 567.46 -1.27 -2.35zm3.37 6.27l1050.13 -567.46 1.27 2.35 -1050.13 567.46 -1.27 -2.35zm3.37 6.27l1050.13 -567.46 1.27 2.35 -1050.13 567.46 -1.27 -2.35zm3.37 6.27l1050.13 -567.46 1.27 2.35 -1050.13 567.46 -1.27 -2.35zm3.37 6.27l1050.13 -567.46 1.27 2.35 -1050.13 567.46 -1.27 -2.35zm3.37 6.27l1050.13 -567.46 1.27 2.35 -1050.13 567.46 -1.27 -2.35zm3.37 6.27l1050.13 -567.46 1.27 2.35 -1050.13 567.46 -1.27 -2.35zm3.37 6.27l1050.13 -567.46 1.27 2.35 -1050.13 567.46 -1.27 -2.35zm3.37 6.27l1050.13 -567.46 1.27 2.35 -1050.13 567.46 -1.27 -2.35zm3.37 6.27l1050.13 -567.46 1.27 2.35 -1050.13 567.46 -1.27 -2.35zm3.37 6.27l1050.13 -567.46 1.27 2.35 -1050.13 567.46 -1.27 -2.35zm3.37 6.27l1050.13 -567.46 1.27 2.35 -1050.13 567.46 -1.27 -2.35zm3.37 6.27l1050.13 -567.46 1.27 2.35 -1050.13 567.46 -1.27 -2.35zm3.37 6.27l1050.13 -567.46 1.27 2.35 -1050.13 567.46 -1.27 -2.35zm3.37 6.27l1050.13 -567.46 1.27 2.35 -1050.13 567.46 -1.27 -2.35zm3.37 6.27l1050.13 -567.46 1.27 2.35 -1050.13 567.46 -1.27 -2.35zm3.37 6.27l1050.13 -567.46 1.27 2.35 -1050.13 567.46 -1.27 -2.35zm3.37 6.27l1050.13 -567.46 1.27 2.35 -1050.13 567.46 -1.27 -2.35zm3.37 6.27l1050.13 -567.46 1.27 2.35 -1050.13 567.46 -1.27 -2.35zm3.37 6.27l1050.13 -567.46 1.27 2.35 -1050.13 567.46 -1.27 -2.35zm3.37 6.27l1050.13 -567.46 1.27 2.35 -1050.13 567.46 -1.27 -2.35zm3.37 6.27l1050.13 -567.46 1.27 2.35 -1050.13 567.46 -1.27 -2.35zm3.37 6.27l1050.13 -567.46 1.27 2.35 -1050.13 567.46 -1.27 -2.35zm3.37 6.27l1050.13 -567.46 1.27 2.35 -1050.13 567.46 -1.27 -2.35zm3.37 6.27l1050.13 -567.46 1.27 2.35 -1050.13 567.46 -1.27 -2.35zm3.37 6.27l1050.13 -567.46 1.27 2.35 -1050.13 567.46 -1.27 -2.35zm3.37 6.27l1050.13 -567.46 1.27 2.35 -1050.13 567.46 -1.27 -2.35zm3.37 6.27l1050.13 -567.46 1.27 2.35 -1050.13 567.46 -1.27 -2.35zm3.37 6.27l1050.13 -567.46 1.27 2.35 -1050.13 567.46 -1.27 -2.35zm3.37 6.27l1050.13 -567.46 1.27 2.35 -1050.13 567.46 -1.27 -2.35z"/>
    <rect class="fil4" x="-826.01" y="843.78" width="520.64" height="52.63"/>
    <rect class="fil5" x="-846.43" y="-106.41" width="524.71" height="110.85"/>
    <rect class="fil5" x="-827.03" y="782.26" width="522.68" height="61.52"/>
    <path class="fil6" d="M-777.53 822c-0.3,0.15 -0.59,0.25 -0.88,0.33 -0.29,0.07 -0.58,0.1 -0.88,0.1 -1.17,0 -2.03,-0.49 -2.59,-1.47 -0.56,-0.98 -0.84,-2.51 -0.84,-4.59 0,-1.99 0.28,-3.5 0.84,-4.52 0.56,-1.03 1.38,-1.54 2.47,-1.54 0.33,0 0.65,0.04 0.96,0.11 0.31,0.08 0.61,0.19 0.91,0.34l0 2.05c-0.2,-0.19 -0.39,-0.32 -0.58,-0.41 -0.19,-0.08 -0.39,-0.13 -0.59,-0.13 -0.62,0 -1.08,0.35 -1.38,1.05 -0.3,0.7 -0.46,1.74 -0.46,3.15 0,1.29 0.15,2.25 0.44,2.89 0.3,0.63 0.75,0.95 1.35,0.95 0.22,0 0.42,-0.04 0.63,-0.13 0.2,-0.08 0.4,-0.21 0.6,-0.39l0 2.2z"/>
    <polygon id="1" class="fil6" points="-776.9,810.53 -774.69,810.53 -773.33,818.17 -771.48,810.53 -769.36,810.53 -774.06,826.88 -776.27,826.88 -774.48,821.17 "/>
    <path id="2" class="fil6" d="M-765.96 816.38c0,1.49 0.12,2.54 0.37,3.14 0.25,0.6 0.67,0.9 1.24,0.9 0.58,0 0.99,-0.3 1.24,-0.9 0.25,-0.6 0.37,-1.65 0.37,-3.14 0,-1.5 -0.12,-2.55 -0.37,-3.15 -0.24,-0.6 -0.66,-0.9 -1.24,-0.9 -0.58,0 -0.99,0.3 -1.24,0.9 -0.25,0.6 -0.37,1.65 -0.37,3.15zm-2.06 5.81l0 -18.42 2.14 0 0 7.9c0.28,-0.46 0.62,-0.79 0.99,-1.01 0.38,-0.21 0.82,-0.32 1.31,-0.32 1.02,0 1.78,0.49 2.27,1.47 0.49,0.98 0.73,2.5 0.73,4.57 0,2.07 -0.24,3.58 -0.73,4.56 -0.49,0.98 -1.24,1.47 -2.27,1.47 -0.49,0 -0.93,-0.11 -1.3,-0.33 -0.38,-0.21 -0.71,-0.56 -1.01,-1.03l0 1.14 -2.14 0z"/>
    <path id="3" class="fil6" d="M-756.82 816.31c0,1.43 0.14,2.47 0.42,3.13 0.28,0.66 0.72,0.99 1.33,0.99 0.61,0 1.06,-0.33 1.35,-1 0.29,-0.67 0.43,-1.7 0.43,-3.12 0,-1.41 -0.15,-2.44 -0.43,-3.11 -0.29,-0.67 -0.74,-1 -1.35,-1 -0.6,0 -1.05,0.33 -1.33,0.99 -0.28,0.66 -0.42,1.7 -0.42,3.11zm-2.17 0.03c0,-1.97 0.33,-3.46 1,-4.49 0.67,-1.03 1.64,-1.54 2.92,-1.54 1.27,0 2.25,0.52 2.92,1.54 0.67,1.03 1,2.52 1,4.49 0,1.98 -0.33,3.49 -1,4.52 -0.67,1.03 -1.64,1.55 -2.92,1.55 -1.27,0 -2.25,-0.52 -2.92,-1.55 -0.67,-1.03 -1,-2.54 -1,-4.52z"/>
    <path id="4" class="fil6" d="M-749.04 822.19l0 -11.66 2.07 0 0 1.7c0.3,-0.62 0.67,-1.09 1.13,-1.4 0.46,-0.32 1.03,-0.49 1.69,-0.52l0 2.26 -0.36 0c-0.84,0 -1.44,0.21 -1.83,0.62 -0.39,0.41 -0.58,1.07 -0.58,1.95l0 7.03 -2.12 0z"/>
    <path id="5" class="fil6" d="M-740.79 816.34c0,1.5 0.12,2.55 0.37,3.15 0.24,0.6 0.66,0.9 1.24,0.9 0.58,0 0.99,-0.3 1.24,-0.9 0.24,-0.6 0.37,-1.65 0.37,-3.15 0,-1.49 -0.13,-2.54 -0.37,-3.14 -0.25,-0.6 -0.66,-0.9 -1.24,-0.9 -0.58,0 -0.99,0.3 -1.24,0.9 -0.25,0.6 -0.37,1.65 -0.37,3.14zm5.28 6.12c0,1.61 -0.3,2.75 -0.88,3.42 -0.59,0.67 -1.58,1.01 -2.96,1.01 -1.14,0 -2,-0.29 -2.6,-0.86 -0.61,-0.57 -0.91,-1.39 -0.91,-2.47l0 -0.37 2.04 0c0.02,0.63 0.15,1.1 0.4,1.41 0.24,0.31 0.6,0.46 1.1,0.46 0.59,0 1.02,-0.19 1.28,-0.56 0.26,-0.37 0.39,-0.98 0.39,-1.83l0 -1.65c-0.29,0.46 -0.63,0.8 -1.01,1.02 -0.38,0.22 -0.81,0.33 -1.3,0.33 -1.03,0 -1.79,-0.49 -2.27,-1.47 -0.48,-0.98 -0.73,-2.5 -0.73,-4.57 0,-2.06 0.24,-3.58 0.73,-4.56 0.48,-0.98 1.24,-1.47 2.27,-1.47 0.5,0 0.94,0.11 1.31,0.32 0.38,0.22 0.71,0.55 0.99,1.01l0 -1.11 2.14 0 0 11.93z"/>
    <path id="6" class="fil6" d="M-718.93 812.16l0.69 -1.44 1.31 0 -1.68 6.75c-0.05,0.19 -0.09,0.36 -0.11,0.52 -0.02,0.16 -0.04,0.3 -0.04,0.43 0,0.35 0.11,0.61 0.33,0.8 0.22,0.18 0.54,0.28 0.98,0.28 0.36,0 0.76,-0.1 1.19,-0.29 0.44,-0.19 0.84,-0.44 1.22,-0.76 0.71,-0.6 1.26,-1.38 1.66,-2.34 0.4,-0.95 0.6,-1.96 0.6,-3.02 0,-2.1 -0.77,-3.8 -2.32,-5.09 -1.55,-1.28 -3.61,-1.92 -6.17,-1.92 -1.33,0 -2.57,0.21 -3.71,0.62 -1.14,0.41 -2.17,1.02 -3.08,1.82 -1.11,0.96 -1.95,2.08 -2.51,3.35 -0.56,1.27 -0.84,2.68 -0.84,4.21 0,1.37 0.24,2.58 0.72,3.61 0.48,1.04 1.22,1.95 2.22,2.73 0.8,0.64 1.75,1.14 2.85,1.48 1.1,0.34 2.27,0.52 3.51,0.52 1.36,0 2.69,-0.19 3.98,-0.58 1.29,-0.39 2.46,-0.94 3.52,-1.66l0.53 0.79c-1.17,0.86 -2.41,1.51 -3.72,1.96 -1.31,0.44 -2.69,0.67 -4.13,0.67 -1.51,0 -2.89,-0.18 -4.14,-0.55 -1.25,-0.37 -2.34,-0.92 -3.28,-1.65 -1.21,-0.93 -2.12,-2 -2.71,-3.23 -0.6,-1.23 -0.89,-2.62 -0.89,-4.18 0,-1.29 0.2,-2.51 0.6,-3.67 0.4,-1.16 0.99,-2.22 1.78,-3.19 1.16,-1.4 2.54,-2.45 4.16,-3.17 1.61,-0.72 3.41,-1.08 5.39,-1.08 1.31,0 2.54,0.17 3.69,0.51 1.16,0.34 2.14,0.84 2.95,1.48 1.02,0.79 1.8,1.7 2.32,2.73 0.53,1.04 0.79,2.16 0.79,3.35 0,1.34 -0.25,2.56 -0.74,3.67 -0.5,1.1 -1.22,2.04 -2.17,2.81 -0.55,0.43 -1.14,0.77 -1.77,0.99 -0.63,0.23 -1.28,0.34 -1.95,0.34 -0.78,0 -1.37,-0.15 -1.76,-0.46 -0.39,-0.31 -0.59,-0.77 -0.59,-1.38 0,-0.02 0,-0.06 0.01,-0.13 0.01,-0.07 0.01,-0.11 0.01,-0.14 -0.41,0.69 -0.91,1.21 -1.51,1.57 -0.6,0.36 -1.27,0.54 -2.02,0.54 -1.21,0 -2.13,-0.34 -2.77,-1.01 -0.64,-0.67 -0.96,-1.65 -0.96,-2.94 0,-1.83 0.54,-3.37 1.63,-4.63 1.09,-1.26 2.4,-1.89 3.94,-1.89 0.72,0 1.33,0.16 1.83,0.47 0.5,0.31 0.88,0.78 1.14,1.4zm-1.07 4.41l0.71 -2.88c-0.14,-0.71 -0.42,-1.27 -0.86,-1.66 -0.43,-0.4 -0.97,-0.6 -1.6,-0.6 -1.16,0 -2.13,0.52 -2.9,1.56 -0.77,1.04 -1.16,2.34 -1.16,3.89 0,0.87 0.2,1.54 0.61,2.02 0.4,0.47 0.98,0.71 1.72,0.71 0.81,0 1.53,-0.28 2.18,-0.84 0.65,-0.56 1.08,-1.29 1.31,-2.2z"/>
    <path id="7" class="fil6" d="M-704.06 822c-0.3,0.15 -0.59,0.25 -0.88,0.33 -0.29,0.07 -0.58,0.1 -0.88,0.1 -1.17,0 -2.03,-0.49 -2.59,-1.47 -0.56,-0.98 -0.84,-2.51 -0.84,-4.59 0,-1.99 0.28,-3.5 0.84,-4.52 0.56,-1.03 1.38,-1.54 2.47,-1.54 0.33,0 0.65,0.04 0.96,0.11 0.31,0.08 0.61,0.19 0.91,0.34l0 2.05c-0.2,-0.19 -0.39,-0.32 -0.58,-0.41 -0.19,-0.08 -0.39,-0.13 -0.59,-0.13 -0.62,0 -1.08,0.35 -1.38,1.05 -0.3,0.7 -0.46,1.74 -0.46,3.15 0,1.29 0.15,2.25 0.44,2.89 0.3,0.63 0.75,0.95 1.35,0.95 0.22,0 0.42,-0.04 0.62,-0.13 0.2,-0.08 0.4,-0.21 0.6,-0.39l0 2.2z"/>
    <path id="8" class="fil6" d="M-697.59 822.19l0 -1.14c-0.29,0.47 -0.63,0.81 -1.01,1.03 -0.38,0.22 -0.81,0.33 -1.3,0.33 -0.98,0 -1.73,-0.51 -2.23,-1.53 -0.51,-1.02 -0.76,-2.53 -0.76,-4.53 0,-1.98 0.25,-3.48 0.75,-4.5 0.5,-1.02 1.25,-1.53 2.24,-1.53 0.5,0 0.94,0.11 1.31,0.32 0.38,0.22 0.71,0.55 0.99,1.01l0 -1.11 2.14 0 0 11.66 -2.14 0zm-3.14 -5.84c0,1.49 0.13,2.54 0.37,3.15 0.25,0.61 0.66,0.92 1.23,0.92 0.57,0 0.98,-0.31 1.23,-0.92 0.25,-0.62 0.38,-1.67 0.38,-3.15 0,-1.49 -0.13,-2.54 -0.37,-3.14 -0.25,-0.6 -0.66,-0.9 -1.24,-0.9 -0.58,0 -0.99,0.3 -1.24,0.9 -0.25,0.6 -0.37,1.64 -0.37,3.14z"/>
    <path id="9" class="fil6" d="M-692.89 822.19l0 -11.66 2.12 0 0 1.16c0.27,-0.43 0.6,-0.75 1,-0.96 0.39,-0.22 0.86,-0.32 1.39,-0.32 0.52,0 0.97,0.11 1.35,0.34 0.38,0.23 0.71,0.58 1.01,1.07 0.32,-0.48 0.69,-0.83 1.12,-1.06 0.43,-0.23 0.92,-0.35 1.46,-0.35 0.86,0 1.49,0.24 1.91,0.71 0.42,0.47 0.63,1.2 0.63,2.17l0 8.89 -2.14 0 0 -7.84c0,-0.79 -0.1,-1.33 -0.31,-1.61 -0.21,-0.29 -0.56,-0.43 -1.08,-0.43 -0.47,0 -0.82,0.15 -1.07,0.45 -0.25,0.3 -0.37,0.74 -0.37,1.33l0 8.11 -2.12 0 0 -7.84c0,-0.77 -0.1,-1.31 -0.31,-1.61 -0.21,-0.29 -0.56,-0.44 -1.05,-0.44 -0.46,0 -0.81,0.15 -1.04,0.45 -0.24,0.3 -0.35,0.74 -0.35,1.33l0 8.11 -2.14 0z"/>
    <path id="10" class="fil6" d="M-673.47 822.19l0 -1.14c-0.29,0.47 -0.63,0.81 -1.01,1.03 -0.38,0.22 -0.81,0.33 -1.3,0.33 -0.98,0 -1.73,-0.51 -2.23,-1.53 -0.51,-1.02 -0.76,-2.53 -0.76,-4.53 0,-1.98 0.25,-3.48 0.75,-4.5 0.5,-1.02 1.25,-1.53 2.24,-1.53 0.5,0 0.94,0.11 1.31,0.32 0.38,0.22 0.71,0.55 0.99,1.01l0 -1.11 2.14 0 0 11.66 -2.14 0zm-3.14 -5.84c0,1.49 0.13,2.54 0.37,3.15 0.25,0.61 0.66,0.92 1.23,0.92 0.57,0 0.98,-0.31 1.23,-0.92 0.25,-0.62 0.38,-1.67 0.38,-3.15 0,-1.49 -0.13,-2.54 -0.37,-3.14 -0.25,-0.6 -0.66,-0.9 -1.24,-0.9 -0.58,0 -0.99,0.3 -1.24,0.9 -0.25,0.6 -0.37,1.64 -0.37,3.14z"/>
    <path id="11" class="fil6" d="M-668.74 822.19l0 -11.66 2.07 0 0 1.7c0.3,-0.62 0.67,-1.09 1.13,-1.4 0.46,-0.32 1.03,-0.49 1.69,-0.52l0 2.26 -0.36 0c-0.84,0 -1.44,0.21 -1.83,0.62 -0.39,0.41 -0.58,1.07 -0.58,1.95l0 7.03 -2.12 0z"/>
    <path id="12" class="fil6" d="M-657.35 822.19l0 -1.14c-0.29,0.47 -0.63,0.81 -1.01,1.03 -0.38,0.22 -0.81,0.33 -1.3,0.33 -0.98,0 -1.73,-0.51 -2.23,-1.53 -0.51,-1.02 -0.76,-2.53 -0.76,-4.53 0,-1.98 0.25,-3.48 0.75,-4.5 0.5,-1.02 1.25,-1.53 2.24,-1.53 0.5,0 0.94,0.11 1.31,0.32 0.38,0.22 0.71,0.55 0.99,1.01l0 -1.11 2.14 0 0 11.66 -2.14 0zm-3.14 -5.84c0,1.49 0.13,2.54 0.37,3.15 0.25,0.61 0.66,0.92 1.23,0.92 0.57,0 0.98,-0.31 1.23,-0.92 0.25,-0.62 0.38,-1.67 0.38,-3.15 0,-1.49 -0.13,-2.54 -0.37,-3.14 -0.25,-0.6 -0.66,-0.9 -1.24,-0.9 -0.58,0 -0.99,0.3 -1.24,0.9 -0.25,0.6 -0.37,1.64 -0.37,3.14z"/>
    <path id="13" class="fil6" d="M-653.31 819.73c0.3,0.26 0.6,0.45 0.9,0.58 0.3,0.13 0.6,0.2 0.91,0.2 0.45,0 0.82,-0.13 1.1,-0.41 0.28,-0.27 0.43,-0.61 0.43,-1.03 0,-0.5 -0.39,-1.12 -1.17,-1.87 -0.1,-0.1 -0.18,-0.17 -0.23,-0.22 -0.76,-0.72 -1.27,-1.32 -1.53,-1.8 -0.26,-0.48 -0.39,-1 -0.39,-1.57 0,-0.98 0.3,-1.79 0.9,-2.4 0.6,-0.62 1.38,-0.93 2.34,-0.93 0.32,0 0.63,0.04 0.93,0.12 0.3,0.08 0.61,0.2 0.91,0.36l0 2.2c-0.23,-0.27 -0.48,-0.46 -0.75,-0.59 -0.27,-0.13 -0.59,-0.19 -0.95,-0.19 -0.4,0 -0.72,0.13 -0.98,0.38 -0.26,0.25 -0.39,0.57 -0.39,0.96 0,0.52 0.38,1.12 1.13,1.8 0.15,0.14 0.26,0.24 0.33,0.31 0.71,0.65 1.2,1.24 1.47,1.76 0.27,0.52 0.41,1.1 0.41,1.75 0,0.99 -0.3,1.78 -0.9,2.37 -0.6,0.59 -1.41,0.88 -2.41,0.88 -0.32,0 -0.66,-0.04 -0.99,-0.11 -0.34,-0.07 -0.69,-0.18 -1.05,-0.32l0 -2.25z"/>
    <path id="14" class="fil6" d="M-646.27 807.05c0,-0.39 0.13,-0.71 0.39,-0.99 0.26,-0.27 0.59,-0.4 0.98,-0.4 0.38,0 0.7,0.13 0.96,0.4 0.26,0.27 0.39,0.6 0.39,0.99 0,0.38 -0.13,0.7 -0.4,0.96 -0.27,0.26 -0.59,0.4 -0.96,0.4 -0.39,0 -0.72,-0.13 -0.98,-0.39 -0.26,-0.26 -0.39,-0.59 -0.39,-0.97zm0.29 19.83l0 -16.35 2.14 0 0 16.35 -2.14 0z"/>
    <path id="15" class="fil6" d="M-636.59 822c-0.3,0.15 -0.59,0.25 -0.88,0.33 -0.29,0.07 -0.58,0.1 -0.88,0.1 -1.17,0 -2.03,-0.49 -2.59,-1.47 -0.56,-0.98 -0.84,-2.51 -0.84,-4.59 0,-1.99 0.28,-3.5 0.84,-4.52 0.56,-1.03 1.38,-1.54 2.47,-1.54 0.33,0 0.65,0.04 0.96,0.11 0.31,0.08 0.61,0.19 0.91,0.34l0 2.05c-0.2,-0.19 -0.39,-0.32 -0.58,-0.41 -0.19,-0.08 -0.39,-0.13 -0.59,-0.13 -0.62,0 -1.08,0.35 -1.38,1.05 -0.3,0.7 -0.46,1.74 -0.46,3.15 0,1.29 0.15,2.25 0.45,2.89 0.3,0.63 0.75,0.95 1.35,0.95 0.22,0 0.42,-0.04 0.62,-0.13 0.2,-0.08 0.4,-0.21 0.6,-0.39l0 2.2z"/>
    <path id="16" class="fil6" d="M-635.28 821.1c0,-0.38 0.13,-0.7 0.39,-0.97 0.26,-0.26 0.58,-0.4 0.96,-0.4 0.37,0 0.69,0.13 0.96,0.4 0.26,0.27 0.4,0.59 0.4,0.97 0,0.37 -0.13,0.69 -0.39,0.95 -0.26,0.25 -0.58,0.39 -0.96,0.39 -0.38,0 -0.7,-0.13 -0.96,-0.39 -0.26,-0.26 -0.39,-0.58 -0.39,-0.95z"/>
    <path id="17" class="fil6" d="M-630.9 819.73c0.3,0.26 0.6,0.45 0.9,0.58 0.3,0.13 0.6,0.2 0.91,0.2 0.45,0 0.82,-0.13 1.1,-0.41 0.28,-0.27 0.43,-0.61 0.43,-1.03 0,-0.5 -0.39,-1.12 -1.17,-1.87 -0.1,-0.1 -0.18,-0.17 -0.23,-0.22 -0.76,-0.72 -1.27,-1.32 -1.53,-1.8 -0.26,-0.48 -0.39,-1 -0.39,-1.57 0,-0.98 0.3,-1.79 0.9,-2.4 0.6,-0.62 1.38,-0.93 2.34,-0.93 0.32,0 0.63,0.04 0.93,0.12 0.3,0.08 0.61,0.2 0.91,0.36l0 2.2c-0.23,-0.27 -0.48,-0.46 -0.75,-0.59 -0.27,-0.13 -0.59,-0.19 -0.95,-0.19 -0.4,0 -0.72,0.13 -0.98,0.38 -0.26,0.25 -0.39,0.57 -0.39,0.96 0,0.52 0.38,1.12 1.13,1.8 0.15,0.14 0.26,0.24 0.33,0.31 0.71,0.65 1.2,1.24 1.47,1.76 0.27,0.52 0.41,1.1 0.41,1.75 0,0.99 -0.3,1.78 -0.9,2.37 -0.6,0.59 -1.41,0.88 -2.41,0.88 -0.32,0 -0.66,-0.04 -0.99,-0.11 -0.34,-0.07 -0.69,-0.18 -1.05,-0.32l0 -2.25z"/>
    <path id="18" class="fil6" d="M-621.66 816.34c0,1.5 0.12,2.55 0.37,3.15 0.25,0.6 0.67,0.9 1.24,0.9 0.58,0 0.99,-0.3 1.24,-0.9 0.25,-0.6 0.37,-1.65 0.37,-3.15 0,-1.49 -0.12,-2.54 -0.37,-3.14 -0.24,-0.6 -0.66,-0.9 -1.24,-0.9 -0.58,0 -0.99,0.3 -1.24,0.9 -0.25,0.6 -0.37,1.65 -0.37,3.14zm-2.06 10.54l0 -16.35 2.14 0 0 1.11c0.28,-0.46 0.62,-0.79 0.99,-1.01 0.38,-0.21 0.82,-0.32 1.31,-0.32 1.02,0 1.78,0.49 2.27,1.47 0.49,0.98 0.73,2.5 0.73,4.56 0,2.07 -0.24,3.59 -0.73,4.57 -0.49,0.98 -1.25,1.47 -2.27,1.47 -0.49,0 -0.92,-0.11 -1.3,-0.33 -0.38,-0.22 -0.71,-0.56 -1.01,-1.02l0 5.86 -2.14 0z"/>
    <path id="19" class="fil6" d="M-614.42 821.1c0,-0.38 0.13,-0.7 0.39,-0.97 0.26,-0.26 0.58,-0.4 0.96,-0.4 0.37,0 0.69,0.13 0.96,0.4 0.26,0.27 0.4,0.59 0.4,0.97 0,0.37 -0.13,0.69 -0.39,0.95 -0.26,0.25 -0.58,0.39 -0.96,0.39 -0.38,0 -0.7,-0.13 -0.96,-0.39 -0.26,-0.26 -0.39,-0.58 -0.39,-0.95z"/>
    <path id="20" class="fil6" d="M-607.71 816.34c0,1.5 0.12,2.55 0.37,3.15 0.24,0.6 0.66,0.9 1.24,0.9 0.58,0 0.99,-0.3 1.24,-0.9 0.24,-0.6 0.37,-1.65 0.37,-3.15 0,-1.49 -0.13,-2.54 -0.37,-3.14 -0.25,-0.6 -0.66,-0.9 -1.24,-0.9 -0.58,0 -0.99,0.3 -1.24,0.9 -0.25,0.6 -0.37,1.65 -0.37,3.14zm5.28 6.12c0,1.61 -0.3,2.75 -0.88,3.42 -0.59,0.67 -1.58,1.01 -2.96,1.01 -1.14,0 -2,-0.29 -2.6,-0.86 -0.61,-0.57 -0.91,-1.39 -0.91,-2.47l0 -0.37 2.04 0c0.02,0.63 0.15,1.1 0.4,1.41 0.24,0.31 0.6,0.46 1.1,0.46 0.59,0 1.02,-0.19 1.28,-0.56 0.26,-0.37 0.39,-0.98 0.39,-1.83l0 -1.65c-0.29,0.46 -0.63,0.8 -1.01,1.02 -0.38,0.22 -0.81,0.33 -1.3,0.33 -1.03,0 -1.79,-0.49 -2.27,-1.47 -0.48,-0.98 -0.73,-2.5 -0.73,-4.57 0,-2.06 0.24,-3.58 0.73,-4.56 0.48,-0.98 1.24,-1.47 2.27,-1.47 0.5,0 0.94,0.11 1.31,0.32 0.38,0.22 0.71,0.55 0.99,1.01l0 -1.11 2.14 0 0 11.93z"/>
    <path id="21" class="fil6" d="M-598.31 816.31c0,1.43 0.14,2.47 0.42,3.13 0.28,0.66 0.72,0.99 1.33,0.99 0.61,0 1.06,-0.33 1.35,-1 0.29,-0.67 0.43,-1.7 0.43,-3.12 0,-1.41 -0.15,-2.44 -0.43,-3.11 -0.29,-0.67 -0.74,-1 -1.35,-1 -0.6,0 -1.05,0.33 -1.33,0.99 -0.28,0.66 -0.42,1.7 -0.42,3.11zm-2.17 0.03c0,-1.97 0.33,-3.46 1,-4.49 0.67,-1.03 1.64,-1.54 2.92,-1.54 1.27,0 2.25,0.52 2.92,1.54 0.67,1.03 1,2.52 1,4.49 0,1.98 -0.33,3.49 -1,4.52 -0.67,1.03 -1.64,1.55 -2.92,1.55 -1.27,0 -2.25,-0.52 -2.92,-1.55 -0.67,-1.03 -1,-2.54 -1,-4.52z"/>
    <path id="22" class="fil6" d="M-591.67 810.53l2.22 0 1.21 6.08c0.07,0.36 0.13,0.76 0.19,1.2 0.06,0.45 0.1,0.94 0.15,1.47 0.07,-0.64 0.14,-1.18 0.2,-1.63 0.06,-0.45 0.12,-0.79 0.17,-1.02l1.19 -6.11 2.22 0 -2.92 11.66 -1.7 0 -2.92 -11.66z"/>
    <path id="23" class="fil6" d="M-584.33 821.1c0,-0.38 0.13,-0.7 0.39,-0.97 0.26,-0.26 0.58,-0.4 0.96,-0.4 0.37,0 0.69,0.13 0.96,0.4 0.26,0.27 0.4,0.59 0.4,0.97 0,0.37 -0.13,0.69 -0.39,0.95 -0.26,0.25 -0.58,0.39 -0.96,0.39 -0.38,0 -0.7,-0.13 -0.96,-0.39 -0.26,-0.26 -0.39,-0.58 -0.39,-0.95z"/>
    <path id="24" class="fil6" d="M-577.36 816.38c0,1.49 0.12,2.54 0.37,3.14 0.25,0.6 0.67,0.9 1.24,0.9 0.58,0 0.99,-0.3 1.24,-0.9 0.25,-0.6 0.37,-1.65 0.37,-3.14 0,-1.5 -0.12,-2.55 -0.37,-3.15 -0.24,-0.6 -0.66,-0.9 -1.24,-0.9 -0.58,0 -0.99,0.3 -1.24,0.9 -0.25,0.6 -0.37,1.65 -0.37,3.15zm-2.06 5.81l0 -18.42 2.14 0 0 7.9c0.28,-0.46 0.62,-0.79 0.99,-1.01 0.38,-0.21 0.82,-0.32 1.31,-0.32 1.02,0 1.78,0.49 2.27,1.47 0.49,0.98 0.73,2.5 0.73,4.57 0,2.07 -0.24,3.58 -0.73,4.56 -0.49,0.98 -1.25,1.47 -2.27,1.47 -0.49,0 -0.92,-0.11 -1.3,-0.33 -0.38,-0.21 -0.71,-0.56 -1.01,-1.03l0 1.14 -2.14 0z"/>
    <path id="25" class="fil6" d="M-569.76 822.19l0 -11.66 2.07 0 0 1.7c0.3,-0.62 0.67,-1.09 1.13,-1.4 0.46,-0.32 1.03,-0.49 1.69,-0.52l0 2.26 -0.36 0c-0.84,0 -1.45,0.21 -1.83,0.62 -0.39,0.41 -0.58,1.07 -0.58,1.95l0 7.03 -2.12 0z"/>
    <polygon id="26" class="fil6" points="-532.52,822.19 -532.52,806.93 -534.67,806.93 -534.67,804.84 -530.36,804.84 -530.36,822.19 "/>
    <path id="27" class="fil6" d="M-526.61 822.19l4.63 -9.2c0.41,-0.82 0.71,-1.56 0.91,-2.24 0.2,-0.68 0.3,-1.29 0.3,-1.84 0,-0.77 -0.13,-1.34 -0.39,-1.71 -0.26,-0.37 -0.66,-0.56 -1.2,-0.56 -0.6,0 -1.02,0.24 -1.27,0.73 -0.26,0.49 -0.38,1.33 -0.38,2.51l0 0.6 -2.19 0c-0.02,-0.11 -0.02,-0.22 -0.02,-0.34 0,-0.12 0,-0.3 0,-0.54 0,-1.65 0.33,-2.9 1,-3.73 0.67,-0.83 1.66,-1.25 2.99,-1.25 1.2,0 2.14,0.38 2.82,1.14 0.69,0.76 1.03,1.81 1.03,3.15 0,0.78 -0.13,1.59 -0.4,2.43 -0.26,0.83 -0.71,1.83 -1.35,2.99l-3.1 5.65 4.51 0 0 2.21 -7.88 0z"/>
    <path id="28" class="fil6" d="M-512.44 817.66l2.04 0c0,0.05 -0,0.12 -0.01,0.21 -0.01,0.09 -0.01,0.16 -0.01,0.21 0,0.73 0.15,1.29 0.46,1.67 0.31,0.38 0.77,0.56 1.37,0.56 0.63,0 1.1,-0.24 1.4,-0.71 0.3,-0.48 0.45,-1.24 0.45,-2.28 0,-1.32 -0.2,-2.2 -0.59,-2.62 -0.4,-0.43 -1.16,-0.64 -2.29,-0.64l-0.34 0 0 -1.89c0.09,0 0.19,0 0.3,0.01 0.11,0 0.26,0 0.45,0 0.89,0 1.5,-0.2 1.81,-0.6 0.32,-0.4 0.47,-1.25 0.47,-2.54 0,-0.86 -0.12,-1.5 -0.36,-1.92 -0.24,-0.41 -0.62,-0.62 -1.12,-0.62 -0.58,0 -1.01,0.22 -1.27,0.67 -0.26,0.45 -0.41,1.22 -0.44,2.3l-1.99 0c-0.01,-0.08 -0.01,-0.17 -0.02,-0.27 -0,-0.11 -0.01,-0.26 -0.01,-0.45 0,-1.38 0.3,-2.42 0.9,-3.11 0.6,-0.69 1.5,-1.03 2.71,-1.03 1.3,0 2.26,0.39 2.9,1.16 0.63,0.77 0.95,1.96 0.95,3.56 0,1.11 -0.17,1.97 -0.51,2.58 -0.34,0.61 -0.86,1 -1.56,1.16 0.82,0.15 1.41,0.53 1.77,1.14 0.36,0.61 0.54,1.55 0.54,2.83 0,1.87 -0.34,3.23 -1.03,4.08 -0.68,0.85 -1.78,1.27 -3.28,1.27 -1.23,0 -2.15,-0.36 -2.75,-1.07 -0.61,-0.72 -0.92,-1.81 -0.92,-3.25l0 -0.42z"/>
    <path id="29" class="fil6" d="M-497.16 810.17c0,-1.2 -0.15,-2.08 -0.43,-2.64 -0.29,-0.56 -0.75,-0.84 -1.37,-0.84 -0.6,0 -1.03,0.28 -1.29,0.83 -0.27,0.55 -0.41,1.44 -0.41,2.68 0,1.28 0.13,2.18 0.4,2.69 0.27,0.51 0.72,0.77 1.35,0.77 0.62,0 1.06,-0.28 1.34,-0.83 0.28,-0.55 0.42,-1.43 0.42,-2.65zm-0.39 4.55c-0.3,0.3 -0.61,0.52 -0.93,0.67 -0.32,0.14 -0.67,0.21 -1.04,0.21 -1.15,0 -1.98,-0.41 -2.49,-1.23 -0.51,-0.82 -0.77,-2.18 -0.77,-4.07 0,-1.95 0.32,-3.39 0.95,-4.31 0.63,-0.93 1.61,-1.39 2.94,-1.39 1.29,0 2.26,0.49 2.9,1.47 0.64,0.98 0.96,2.45 0.96,4.43 0,1.56 -0.26,3.19 -0.79,4.86 -0.53,1.67 -1.57,3.95 -3.1,6.84l-2.53 0c1.1,-1.94 1.93,-3.44 2.49,-4.51 0.56,-1.07 1.04,-2.06 1.43,-2.96z"/>
    <path id="30" class="fil6" d="M-493.83 822.19l4.63 -9.2c0.41,-0.82 0.71,-1.56 0.91,-2.24 0.2,-0.68 0.3,-1.29 0.3,-1.84 0,-0.77 -0.13,-1.34 -0.39,-1.71 -0.26,-0.37 -0.66,-0.56 -1.2,-0.56 -0.6,0 -1.02,0.24 -1.27,0.73 -0.26,0.49 -0.38,1.33 -0.38,2.51l0 0.6 -2.19 0c-0.02,-0.11 -0.02,-0.22 -0.02,-0.34 0,-0.12 0,-0.3 0,-0.54 0,-1.65 0.33,-2.9 1,-3.73 0.67,-0.83 1.66,-1.25 2.99,-1.25 1.2,0 2.14,0.38 2.82,1.14 0.69,0.76 1.03,1.81 1.03,3.15 0,0.78 -0.13,1.59 -0.4,2.43 -0.26,0.83 -0.71,1.83 -1.35,2.99l-3.1 5.65 4.51 0 0 2.21 -7.88 0z"/>
    <path id="31" class="fil6" d="M-484.1 819.51c0.37,0.27 0.75,0.48 1.13,0.6 0.38,0.13 0.77,0.2 1.16,0.2 1.03,0 1.81,-0.35 2.32,-1.06 0.52,-0.71 0.77,-1.77 0.77,-3.17 0,-1.06 -0.26,-1.86 -0.8,-2.39 -0.53,-0.53 -1.32,-0.79 -2.37,-0.79 -0.41,0 -0.77,0.02 -1.08,0.06 -0.31,0.04 -0.61,0.1 -0.89,0.18l1.14 -8.29 6.06 0 0 2.14 -4.23 0 -0.68 4.23c0.23,-0.04 0.44,-0.07 0.63,-0.09 0.18,-0.02 0.35,-0.03 0.49,-0.03 1.18,0 2.13,0.46 2.85,1.39 0.72,0.92 1.08,2.16 1.08,3.7 0,1.96 -0.44,3.49 -1.31,4.58 -0.88,1.1 -2.1,1.65 -3.67,1.65 -0.57,0 -1.12,-0.07 -1.65,-0.2 -0.53,-0.13 -1.04,-0.34 -1.55,-0.62l0.58 -2.08z"/>
    <path id="32" class="fil6" d="M-462.85 816.85c0,1.22 0.14,2.1 0.42,2.66 0.28,0.56 0.73,0.83 1.35,0.83 0.6,0 1.04,-0.28 1.32,-0.83 0.28,-0.56 0.42,-1.45 0.42,-2.68 0,-1.27 -0.14,-2.16 -0.41,-2.68 -0.27,-0.52 -0.73,-0.77 -1.37,-0.77 -0.6,0 -1.04,0.27 -1.31,0.82 -0.27,0.54 -0.41,1.43 -0.41,2.66zm0.39 -4.54c0.29,-0.3 0.6,-0.52 0.93,-0.66 0.32,-0.14 0.67,-0.22 1.03,-0.22 1.16,0 1.99,0.41 2.5,1.23 0.51,0.82 0.77,2.18 0.77,4.08 0,1.94 -0.32,3.38 -0.95,4.3 -0.64,0.93 -1.62,1.39 -2.95,1.39 -1.3,0 -2.27,-0.49 -2.91,-1.46 -0.64,-0.97 -0.96,-2.44 -0.96,-4.4 0,-1.58 0.27,-3.21 0.8,-4.89 0.53,-1.68 1.56,-3.97 3.09,-6.84l2.55 0c-0.99,1.71 -1.78,3.16 -2.41,4.36 -0.62,1.19 -1.12,2.23 -1.5,3.12z"/>
    <path id="33" class="fil6" d="M-453.48 816.85c0,1.22 0.14,2.1 0.42,2.66 0.28,0.56 0.73,0.83 1.35,0.83 0.6,0 1.04,-0.28 1.32,-0.83 0.28,-0.56 0.42,-1.45 0.42,-2.68 0,-1.27 -0.14,-2.16 -0.41,-2.68 -0.27,-0.52 -0.73,-0.77 -1.37,-0.77 -0.6,0 -1.04,0.27 -1.31,0.82 -0.27,0.54 -0.41,1.43 -0.41,2.66zm0.39 -4.54c0.29,-0.3 0.6,-0.52 0.93,-0.66 0.32,-0.14 0.67,-0.22 1.03,-0.22 1.16,0 1.99,0.41 2.5,1.23 0.51,0.82 0.77,2.18 0.77,4.08 0,1.94 -0.32,3.38 -0.95,4.3 -0.64,0.93 -1.62,1.39 -2.95,1.39 -1.3,0 -2.27,-0.49 -2.91,-1.46 -0.64,-0.97 -0.96,-2.44 -0.96,-4.4 0,-1.58 0.27,-3.21 0.8,-4.89 0.54,-1.68 1.56,-3.97 3.09,-6.84l2.56 0c-0.99,1.71 -1.79,3.16 -2.41,4.36 -0.62,1.19 -1.12,2.23 -1.5,3.12z"/>
    <path id="34" class="fil6" d="M-446.67 822.19l4.63 -9.2c0.41,-0.82 0.71,-1.56 0.91,-2.24 0.2,-0.68 0.3,-1.29 0.3,-1.84 0,-0.77 -0.13,-1.34 -0.39,-1.71 -0.26,-0.37 -0.66,-0.56 -1.2,-0.56 -0.6,0 -1.02,0.24 -1.27,0.73 -0.26,0.49 -0.38,1.33 -0.38,2.51l0 0.6 -2.19 0c-0.02,-0.11 -0.02,-0.22 -0.02,-0.34 0,-0.12 0,-0.3 0,-0.54 0,-1.65 0.33,-2.9 1,-3.73 0.67,-0.83 1.66,-1.25 2.99,-1.25 1.2,0 2.14,0.38 2.82,1.14 0.69,0.76 1.03,1.81 1.03,3.15 0,0.78 -0.13,1.59 -0.4,2.43 -0.26,0.83 -0.71,1.83 -1.35,2.99l-3.1 5.65 4.51 0 0 2.21 -7.88 0z"/>
    <path id="35" class="fil6" d="M-436.95 819.51c0.37,0.27 0.75,0.48 1.13,0.6 0.38,0.13 0.77,0.2 1.16,0.2 1.03,0 1.81,-0.35 2.32,-1.06 0.52,-0.71 0.77,-1.77 0.77,-3.17 0,-1.06 -0.26,-1.86 -0.8,-2.39 -0.53,-0.53 -1.32,-0.79 -2.37,-0.79 -0.41,0 -0.77,0.02 -1.08,0.06 -0.31,0.04 -0.61,0.1 -0.89,0.18l1.14 -8.29 6.06 0 0 2.14 -4.23 0 -0.68 4.23c0.23,-0.04 0.44,-0.07 0.62,-0.09 0.18,-0.02 0.35,-0.03 0.49,-0.03 1.18,0 2.13,0.46 2.85,1.39 0.72,0.92 1.08,2.16 1.08,3.7 0,1.96 -0.44,3.49 -1.31,4.58 -0.88,1.1 -2.1,1.65 -3.67,1.65 -0.57,0 -1.12,-0.07 -1.65,-0.2 -0.53,-0.13 -1.04,-0.34 -1.55,-0.62l0.58 -2.08z"/>
    <polygon id="36" class="fil6" points="-423.64,824.45 -418.62,804.62 -416.9,804.62 -421.92,824.45 "/>
    <polygon id="37" class="fil6" points="-416.9,824.45 -411.89,804.62 -410.16,804.62 -415.18,824.45 "/>
    <path id="38" class="fil6" d="M-404.96 817.66l2.04 0c0,0.05 -0,0.12 -0.01,0.21 -0.01,0.09 -0.01,0.16 -0.01,0.21 0,0.73 0.15,1.29 0.46,1.67 0.31,0.38 0.77,0.56 1.37,0.56 0.63,0 1.1,-0.24 1.39,-0.71 0.3,-0.48 0.45,-1.24 0.45,-2.28 0,-1.32 -0.2,-2.2 -0.59,-2.62 -0.4,-0.43 -1.16,-0.64 -2.29,-0.64l-0.34 0 0 -1.89c0.09,0 0.19,0 0.3,0.01 0.11,0 0.26,0 0.45,0 0.89,0 1.5,-0.2 1.81,-0.6 0.32,-0.4 0.47,-1.25 0.47,-2.54 0,-0.86 -0.12,-1.5 -0.36,-1.92 -0.24,-0.41 -0.62,-0.62 -1.12,-0.62 -0.58,0 -1.01,0.22 -1.27,0.67 -0.26,0.45 -0.41,1.22 -0.44,2.3l-1.99 0c-0.01,-0.08 -0.01,-0.17 -0.02,-0.27 -0,-0.11 -0.01,-0.26 -0.01,-0.45 0,-1.38 0.3,-2.42 0.9,-3.11 0.6,-0.69 1.5,-1.03 2.71,-1.03 1.3,0 2.26,0.39 2.9,1.16 0.63,0.77 0.95,1.96 0.95,3.56 0,1.11 -0.17,1.97 -0.51,2.58 -0.34,0.61 -0.86,1 -1.56,1.16 0.82,0.15 1.41,0.53 1.77,1.14 0.36,0.61 0.54,1.55 0.54,2.83 0,1.87 -0.34,3.23 -1.03,4.08 -0.68,0.85 -1.78,1.27 -3.28,1.27 -1.23,0 -2.15,-0.36 -2.75,-1.07 -0.61,-0.72 -0.92,-1.81 -0.92,-3.25l0 -0.42z"/>
    <path id="39" class="fil6" d="M-389.68 810.17c0,-1.2 -0.15,-2.08 -0.43,-2.64 -0.29,-0.56 -0.75,-0.84 -1.37,-0.84 -0.6,0 -1.03,0.28 -1.29,0.83 -0.27,0.55 -0.4,1.44 -0.4,2.68 0,1.28 0.13,2.18 0.4,2.69 0.27,0.51 0.71,0.77 1.35,0.77 0.62,0 1.06,-0.28 1.34,-0.83 0.28,-0.55 0.42,-1.43 0.42,-2.65zm-0.39 4.55c-0.3,0.3 -0.61,0.52 -0.93,0.67 -0.32,0.14 -0.67,0.21 -1.04,0.21 -1.15,0 -1.98,-0.41 -2.49,-1.23 -0.51,-0.82 -0.77,-2.18 -0.77,-4.07 0,-1.95 0.32,-3.39 0.95,-4.31 0.63,-0.93 1.61,-1.39 2.94,-1.39 1.29,0 2.26,0.49 2.9,1.47 0.64,0.98 0.96,2.45 0.96,4.43 0,1.56 -0.26,3.19 -0.79,4.86 -0.53,1.67 -1.57,3.95 -3.1,6.84l-2.53 0c1.1,-1.94 1.93,-3.44 2.49,-4.51 0.56,-1.07 1.04,-2.06 1.43,-2.96z"/>
    <path id="40" class="fil6" d="M-386.35 822.19l4.63 -9.2c0.41,-0.82 0.71,-1.56 0.91,-2.24 0.2,-0.68 0.3,-1.29 0.3,-1.84 0,-0.77 -0.13,-1.34 -0.39,-1.71 -0.26,-0.37 -0.66,-0.56 -1.2,-0.56 -0.6,0 -1.02,0.24 -1.27,0.73 -0.26,0.49 -0.38,1.33 -0.38,2.51l0 0.6 -2.19 0c-0.02,-0.11 -0.02,-0.22 -0.02,-0.34 0,-0.12 0,-0.3 0,-0.54 0,-1.65 0.33,-2.9 1,-3.73 0.67,-0.83 1.66,-1.25 2.99,-1.25 1.2,0 2.14,0.38 2.82,1.14 0.69,0.76 1.03,1.81 1.03,3.15 0,0.78 -0.13,1.59 -0.4,2.43 -0.26,0.83 -0.71,1.83 -1.35,2.99l-3.1 5.65 4.51 0 0 2.21 -7.88 0z"/>
    <path id="41" class="fil6" d="M-376.63 819.51c0.37,0.27 0.75,0.48 1.13,0.6 0.38,0.13 0.77,0.2 1.16,0.2 1.03,0 1.81,-0.35 2.32,-1.06 0.52,-0.71 0.77,-1.77 0.77,-3.17 0,-1.06 -0.26,-1.86 -0.8,-2.39 -0.53,-0.53 -1.32,-0.79 -2.37,-0.79 -0.41,0 -0.77,0.02 -1.08,0.06 -0.31,0.04 -0.61,0.1 -0.89,0.18l1.14 -8.29 6.06 0 0 2.14 -4.23 0 -0.68 4.23c0.23,-0.04 0.44,-0.07 0.62,-0.09 0.18,-0.02 0.35,-0.03 0.49,-0.03 1.18,0 2.13,0.46 2.85,1.39 0.72,0.92 1.08,2.16 1.08,3.7 0,1.96 -0.44,3.49 -1.31,4.58 -0.88,1.1 -2.1,1.65 -3.67,1.65 -0.57,0 -1.12,-0.07 -1.65,-0.2 -0.53,-0.13 -1.04,-0.34 -1.55,-0.62l0.58 -2.08z"/>
    <path id="42" class="fil6" d="M-355.37 816.85c0,1.22 0.14,2.1 0.42,2.66 0.28,0.56 0.73,0.83 1.35,0.83 0.6,0 1.04,-0.28 1.32,-0.83 0.28,-0.56 0.42,-1.45 0.42,-2.68 0,-1.27 -0.14,-2.16 -0.41,-2.68 -0.27,-0.52 -0.73,-0.77 -1.37,-0.77 -0.6,0 -1.04,0.27 -1.31,0.82 -0.27,0.54 -0.41,1.43 -0.41,2.66zm0.39 -4.54c0.29,-0.3 0.6,-0.52 0.92,-0.66 0.32,-0.14 0.67,-0.22 1.03,-0.22 1.16,0 1.99,0.41 2.5,1.23 0.51,0.82 0.77,2.18 0.77,4.08 0,1.94 -0.32,3.38 -0.95,4.3 -0.64,0.93 -1.62,1.39 -2.95,1.39 -1.3,0 -2.27,-0.49 -2.91,-1.46 -0.64,-0.97 -0.96,-2.44 -0.96,-4.4 0,-1.58 0.27,-3.21 0.8,-4.89 0.54,-1.68 1.56,-3.97 3.09,-6.84l2.56 0c-0.99,1.71 -1.79,3.16 -2.41,4.36 -0.62,1.19 -1.12,2.23 -1.5,3.12z"/>
    <path id="43" class="fil6" d="M-348.2 819.51c0.37,0.27 0.75,0.48 1.13,0.6 0.38,0.13 0.77,0.2 1.16,0.2 1.03,0 1.81,-0.35 2.32,-1.06 0.52,-0.71 0.77,-1.77 0.77,-3.17 0,-1.06 -0.26,-1.86 -0.8,-2.39 -0.53,-0.53 -1.32,-0.79 -2.37,-0.79 -0.41,0 -0.77,0.02 -1.08,0.06 -0.31,0.04 -0.61,0.1 -0.89,0.18l1.14 -8.29 6.06 0 0 2.14 -4.23 0 -0.68 4.23c0.23,-0.04 0.44,-0.07 0.62,-0.09 0.18,-0.02 0.35,-0.03 0.49,-0.03 1.18,0 2.13,0.46 2.85,1.39 0.72,0.92 1.08,2.16 1.08,3.7 0,1.96 -0.44,3.49 -1.31,4.58 -0.88,1.1 -2.1,1.65 -3.67,1.65 -0.57,0 -1.12,-0.07 -1.65,-0.2 -0.53,-0.13 -1.04,-0.34 -1.55,-0.62l0.58 -2.08z"/>
    <path id="44" class="fil6" d="M-336.57 813.5c0,2.87 0.12,4.73 0.36,5.58 0.24,0.85 0.68,1.28 1.31,1.28 0.62,0 1.05,-0.42 1.3,-1.25 0.24,-0.83 0.36,-2.7 0.36,-5.61 0,-2.91 -0.12,-4.79 -0.36,-5.62 -0.24,-0.83 -0.67,-1.25 -1.3,-1.25 -0.64,0 -1.07,0.43 -1.31,1.28 -0.24,0.85 -0.36,2.71 -0.36,5.59zm-2.26 0.02c0,-1.89 0.04,-3.32 0.13,-4.28 0.09,-0.96 0.24,-1.68 0.44,-2.17 0.34,-0.86 0.77,-1.49 1.31,-1.87 0.54,-0.39 1.22,-0.58 2.06,-0.58 0.84,0 1.52,0.2 2.05,0.58 0.53,0.39 0.97,1.01 1.31,1.87 0.2,0.5 0.34,1.23 0.43,2.19 0.09,0.96 0.13,2.38 0.13,4.26 0,1.88 -0.04,3.29 -0.13,4.25 -0.09,0.95 -0.23,1.68 -0.43,2.18 -0.34,0.86 -0.78,1.49 -1.31,1.87 -0.53,0.39 -1.21,0.58 -2.05,0.58 -0.84,0 -1.52,-0.19 -2.06,-0.58 -0.53,-0.39 -0.97,-1.01 -1.31,-1.87 -0.21,-0.48 -0.35,-1.2 -0.44,-2.16 -0.09,-0.96 -0.13,-2.38 -0.13,-4.27z"/>
    <path id="45" class="fil6" d="M-323.84 812.76c0.76,0.27 1.29,0.72 1.61,1.35 0.32,0.63 0.48,1.65 0.48,3.03 0,0.98 -0.04,1.71 -0.12,2.17 -0.08,0.46 -0.21,0.87 -0.39,1.22 -0.32,0.6 -0.77,1.06 -1.34,1.38 -0.56,0.32 -1.22,0.48 -1.95,0.48 -0.58,0 -1.11,-0.1 -1.59,-0.3 -0.48,-0.2 -0.89,-0.49 -1.23,-0.88 -0.36,-0.4 -0.61,-0.87 -0.75,-1.41 -0.15,-0.54 -0.22,-1.43 -0.22,-2.66 0,-1.38 0.16,-2.39 0.48,-3.03 0.32,-0.64 0.87,-1.09 1.64,-1.36 -0.71,-0.32 -1.21,-0.75 -1.5,-1.31 -0.28,-0.56 -0.43,-1.44 -0.43,-2.65 0,-1.46 0.29,-2.52 0.87,-3.19 0.58,-0.67 1.49,-1 2.73,-1 1.26,0 2.18,0.34 2.76,1.01 0.58,0.67 0.87,1.73 0.87,3.18 0,1.21 -0.14,2.09 -0.43,2.65 -0.29,0.55 -0.78,0.99 -1.49,1.31zm-3.29 4.25c0,1.27 0.12,2.15 0.36,2.63 0.24,0.48 0.64,0.72 1.22,0.72 0.58,0 0.99,-0.23 1.23,-0.68 0.24,-0.45 0.36,-1.27 0.36,-2.46 0,-1.28 -0.12,-2.16 -0.36,-2.65 -0.24,-0.49 -0.65,-0.73 -1.23,-0.73 -0.56,0 -0.97,0.24 -1.21,0.73 -0.25,0.49 -0.37,1.3 -0.37,2.44zm1.58 -5.14c0.53,0 0.91,-0.21 1.14,-0.62 0.23,-0.41 0.34,-1.11 0.34,-2.09 0,-0.96 -0.11,-1.64 -0.34,-2.04 -0.23,-0.4 -0.61,-0.6 -1.14,-0.6 -0.53,0 -0.9,0.19 -1.13,0.58 -0.22,0.39 -0.33,1.07 -0.33,2.07 0,1 0.11,1.71 0.33,2.1 0.22,0.4 0.6,0.6 1.13,0.6z"/>
    <path id="46" class="fil6" d="M-473.02 816.07c0,-0.66 0.23,-1.22 0.7,-1.68 0.47,-0.46 1.03,-0.69 1.68,-0.69 0.65,0 1.21,0.23 1.67,0.69 0.46,0.46 0.69,1.02 0.69,1.67 0,0.65 -0.23,1.21 -0.7,1.68 -0.47,0.47 -1.03,0.7 -1.68,0.7 -0.66,0 -1.22,-0.23 -1.68,-0.7 -0.46,-0.47 -0.69,-1.03 -0.69,-1.68z"/>
    <path id="47" class="fil6" d="M-365.55 816.07c0,-0.66 0.23,-1.22 0.7,-1.68 0.47,-0.46 1.03,-0.69 1.68,-0.69 0.65,0 1.21,0.23 1.67,0.69 0.46,0.46 0.69,1.02 0.69,1.67 0,0.65 -0.23,1.21 -0.7,1.68 -0.47,0.47 -1.03,0.7 -1.68,0.7 -0.66,0 -1.22,-0.23 -1.68,-0.7 -0.46,-0.47 -0.69,-1.03 -0.69,-1.68z"/>
    <g>
     <ellipse class="fil7" cx="-548.06" cy="815.33" rx="11.53" ry="11.03"/>
     <path class="fil8" d="M-552.22 809.1c0.34,-0.07 0.69,-0.06 1.03,-0.01 0.23,0.04 0.35,0.28 0.43,0.47 0.33,0.8 0.65,1.6 0.99,2.39 0.08,0.17 0.11,0.37 0.03,0.55 -0.23,0.44 -0.64,0.75 -0.92,1.15 -0.1,0.14 -0.12,0.33 -0.03,0.48 0.97,1.7 2.5,3.11 4.36,3.78 0.23,0.08 0.5,0.03 0.67,-0.15 0.34,-0.37 0.6,-0.81 0.92,-1.2 0.18,-0.22 0.5,-0.23 0.74,-0.12 0.78,0.35 1.55,0.73 2.32,1.11 0.13,0.07 0.28,0.13 0.37,0.25 0.07,0.22 0.04,0.46 0.01,0.69 -0.08,0.5 -0.21,1.04 -0.6,1.4 -0.67,0.63 -1.6,1.02 -2.52,0.97 -0.9,-0.08 -1.75,-0.41 -2.58,-0.73 -2.25,-0.85 -4.05,-2.58 -5.43,-4.5 -0.63,-0.84 -1.21,-1.77 -1.44,-2.81 -0.21,-0.97 -0.04,-2.04 0.55,-2.85 0.29,-0.38 0.62,-0.78 1.12,-0.86z"/>
    </g>
    <g>
     <ellipse class="fil7" cx="-798.56" cy="815.33" rx="11.37" ry="10.88"/>
     <path class="fil9" d="M-806.85 809.2l16.58 0 0 12.25 -16.58 0 0 -12.25zm1.16 1.98l0 0c0,2.84 -0,5.68 0,8.52 1.4,-1.42 2.79,-2.85 4.19,-4.28 -1.4,-1.42 -2.8,-2.83 -4.19,-4.25zm0.81 -0.83l0 0c1.93,1.95 3.86,3.91 5.79,5.86 0.29,0.32 0.85,0.32 1.13,-0.01 1.94,-1.95 3.88,-3.9 5.82,-5.86 -4.25,0 -8.49,0 -12.74,-0zm9.3 5.11l0 0c1.38,1.42 2.77,2.83 4.15,4.25 0,-2.81 0,-5.62 0,-8.43 -1.38,1.39 -2.77,2.79 -4.15,4.18zm-9.3 5.08l0 0c4.22,0 8.43,0 12.65,0 -1.39,-1.42 -2.78,-2.84 -4.16,-4.26 -0.28,0.28 -0.55,0.56 -0.83,0.84 -0.61,0.57 -1.61,0.65 -2.32,0.21 -0.22,-0.13 -0.38,-0.32 -0.56,-0.5 -0.19,-0.19 -0.38,-0.38 -0.57,-0.58 -1.4,1.43 -2.8,2.86 -4.2,4.29z"/>
    </g>
    <g>
     <path class="fil6" d="M-590.73 860.54l1.77 0 2.17 8.25 2.27 -8.25 1.67 0 -3.01 9.93 -1.95 0 -2.91 -9.93zm16.23 5.4l-5.52 0c0.04,1.11 0.28,1.96 0.76,2.54 0.47,0.58 1.15,0.86 2.02,0.86 0.37,0 0.74,-0.05 1.11,-0.16 0.37,-0.11 0.74,-0.27 1.13,-0.49l0.04 1.37c-0.36,0.2 -0.75,0.35 -1.17,0.44 -0.42,0.09 -0.88,0.14 -1.37,0.14 -1.4,0 -2.45,-0.43 -3.15,-1.28 -0.71,-0.86 -1.06,-2.13 -1.06,-3.83 0,-1.58 0.34,-2.84 1.02,-3.78 0.68,-0.93 1.6,-1.4 2.75,-1.4 1.06,0 1.9,0.42 2.53,1.25 0.63,0.83 0.94,1.95 0.94,3.36 0,0.3 0,0.52 -0.01,0.64 -0,0.13 -0.01,0.24 -0.02,0.34zm-1.57 -1.15l0 -0.07c0,-0.99 -0.16,-1.75 -0.48,-2.27 -0.32,-0.52 -0.79,-0.78 -1.39,-0.78 -0.63,0 -1.13,0.26 -1.47,0.78 -0.35,0.52 -0.56,1.3 -0.63,2.35l3.98 0zm8.01 -4.42l-0.01 1.62c-0.07,-0.01 -0.15,-0.01 -0.21,-0.02 -0.06,-0 -0.13,-0 -0.19,-0 -0.72,0 -1.27,0.25 -1.65,0.73 -0.38,0.49 -0.57,1.19 -0.57,2.1l0 5.67 -1.61 0 0 -7.44c0,-0.37 -0.01,-0.76 -0.03,-1.16 -0.01,-0.4 -0.04,-0.84 -0.07,-1.32l1.5 0c0.03,0.45 0.05,0.79 0.06,1.03 0.01,0.23 0.01,0.45 0.01,0.66 0.26,-0.62 0.6,-1.08 1.03,-1.39 0.43,-0.31 0.95,-0.47 1.56,-0.47l0.18 0zm8.04 5.57l-5.52 0c0.03,1.11 0.28,1.96 0.75,2.54 0.47,0.58 1.15,0.86 2.02,0.86 0.37,0 0.74,-0.05 1.11,-0.16 0.37,-0.11 0.74,-0.27 1.13,-0.49l0.04 1.37c-0.36,0.2 -0.75,0.35 -1.17,0.44 -0.42,0.09 -0.88,0.14 -1.37,0.14 -1.4,0 -2.45,-0.43 -3.15,-1.28 -0.71,-0.86 -1.06,-2.13 -1.06,-3.83 0,-1.58 0.34,-2.84 1.02,-3.78 0.68,-0.93 1.6,-1.4 2.75,-1.4 1.06,0 1.9,0.42 2.53,1.25 0.63,0.83 0.94,1.95 0.94,3.36 0,0.3 0,0.52 -0,0.64 -0,0.13 -0.01,0.24 -0.03,0.34zm-1.57 -1.15l0 -0.07c0,-0.99 -0.16,-1.75 -0.48,-2.27 -0.32,-0.52 -0.79,-0.78 -1.39,-0.78 -0.63,0 -1.13,0.26 -1.47,0.78 -0.35,0.52 -0.56,1.3 -0.63,2.35l3.98 0zm8.46 0.74c-0.11,-0.01 -0.23,-0.01 -0.36,-0.01 -0.14,-0 -0.35,-0 -0.62,-0 -0.99,0 -1.73,0.17 -2.22,0.51 -0.49,0.35 -0.73,0.87 -0.73,1.58 0,0.56 0.15,1 0.45,1.31 0.3,0.31 0.72,0.47 1.26,0.47 0.76,0 1.32,-0.25 1.68,-0.75 0.36,-0.5 0.54,-1.28 0.54,-2.34l0 -0.77zm1.61 -1.15l0 4.22c0,0.39 0.01,0.74 0.02,1.04 0.02,0.3 0.04,0.58 0.07,0.84l-1.52 0 -0.15 -1.19c-0.32,0.47 -0.69,0.82 -1.14,1.05 -0.44,0.22 -0.96,0.34 -1.57,0.34 -0.87,0 -1.58,-0.27 -2.1,-0.81 -0.53,-0.54 -0.79,-1.27 -0.79,-2.18 0,-1.08 0.39,-1.9 1.17,-2.46 0.78,-0.56 1.93,-0.84 3.44,-0.84 0.03,0 0.15,0.01 0.36,0.02 0.21,0.02 0.4,0.03 0.58,0.04l0 -0.6c0,-0.71 -0.18,-1.25 -0.53,-1.62 -0.36,-0.37 -0.87,-0.56 -1.55,-0.56 -0.47,0 -0.91,0.08 -1.32,0.25 -0.4,0.16 -0.77,0.42 -1.1,0.74l-0.18 -1.47c0.44,-0.27 0.91,-0.48 1.4,-0.62 0.5,-0.15 0.98,-0.22 1.45,-0.22 1.24,0 2.13,0.3 2.66,0.9 0.53,0.6 0.79,1.64 0.79,3.12zm8.01 0.55c0,-1.03 -0.18,-1.83 -0.55,-2.39 -0.36,-0.56 -0.88,-0.84 -1.56,-0.84 -0.69,0 -1.2,0.32 -1.55,0.96 -0.35,0.64 -0.52,1.59 -0.52,2.85 0,1.27 0.17,2.23 0.52,2.87 0.35,0.64 0.86,0.96 1.55,0.96 0.67,0 1.2,-0.28 1.56,-0.84 0.37,-0.56 0.55,-1.36 0.55,-2.4l0 -1.17zm0 -9.03l1.63 0 0 14.58 -1.43 0c-0.03,-0.34 -0.06,-0.62 -0.07,-0.84 -0,-0.22 -0.01,-0.43 -0.01,-0.63 -0.34,0.58 -0.71,1.01 -1.12,1.27 -0.41,0.26 -0.9,0.39 -1.47,0.39 -1.12,0 -1.98,-0.44 -2.56,-1.31 -0.59,-0.88 -0.88,-2.16 -0.88,-3.84 0,-1.72 0.3,-3.02 0.89,-3.87 0.59,-0.86 1.49,-1.29 2.68,-1.29 0.49,0 0.93,0.13 1.32,0.38 0.39,0.25 0.73,0.63 1.01,1.13l0 -5.97zm7.8 5.79c-0.73,0 -1.28,0.33 -1.67,0.99 -0.39,0.66 -0.58,1.61 -0.58,2.84 0,1.23 0.19,2.17 0.58,2.82 0.39,0.65 0.94,0.98 1.67,0.98 0.72,0 1.28,-0.33 1.66,-0.98 0.39,-0.66 0.58,-1.6 0.58,-2.82 0,-1.23 -0.19,-2.18 -0.58,-2.84 -0.38,-0.66 -0.94,-0.99 -1.66,-0.99zm0 -1.33c1.27,0 2.25,0.45 2.94,1.33 0.69,0.89 1.03,2.17 1.03,3.83 0,1.66 -0.34,2.93 -1.03,3.82 -0.69,0.89 -1.67,1.33 -2.94,1.33 -1.28,0 -2.26,-0.45 -2.95,-1.33 -0.69,-0.89 -1.03,-2.17 -1.03,-3.82 0,-1.66 0.34,-2.93 1.03,-3.82 0.69,-0.9 1.67,-1.34 2.95,-1.34zm10.42 0.02l-0.01 1.62c-0.07,-0.01 -0.15,-0.01 -0.21,-0.02 -0.06,-0 -0.13,-0 -0.19,-0 -0.72,0 -1.27,0.25 -1.65,0.73 -0.38,0.49 -0.57,1.19 -0.57,2.1l0 5.67 -1.61 0 0 -7.44c0,-0.37 -0.01,-0.76 -0.03,-1.16 -0.01,-0.4 -0.04,-0.84 -0.07,-1.32l1.5 0c0.03,0.45 0.05,0.79 0.06,1.03 0.01,0.23 0.01,0.45 0.01,0.66 0.26,-0.62 0.6,-1.08 1.03,-1.39 0.43,-0.31 0.95,-0.47 1.56,-0.47l0.18 0zm7.12 0.34l-0.04 1.49c-0.29,-0.17 -0.56,-0.29 -0.82,-0.37 -0.26,-0.07 -0.54,-0.11 -0.83,-0.11 -0.94,0 -1.65,0.3 -2.13,0.91 -0.48,0.61 -0.72,1.5 -0.72,2.68 0,1.29 0.25,2.28 0.75,2.96 0.5,0.68 1.21,1.03 2.14,1.03 0.28,0 0.56,-0.03 0.83,-0.1 0.28,-0.07 0.57,-0.18 0.89,-0.33l0.05 1.39c-0.34,0.13 -0.69,0.23 -1.05,0.3 -0.36,0.06 -0.73,0.09 -1.1,0.09 -1.32,0 -2.36,-0.46 -3.11,-1.37 -0.76,-0.91 -1.14,-2.18 -1.14,-3.8 0,-1.59 0.39,-2.84 1.16,-3.75 0.78,-0.91 1.83,-1.37 3.17,-1.37 0.32,0 0.63,0.03 0.95,0.08 0.32,0.06 0.65,0.15 0.99,0.27zm0.68 -0.16l1.79 0 2.15 8.11 2.16 -8.11 1.57 0 -3.24 11.22c-0.37,1.25 -0.74,2.07 -1.12,2.46 -0.38,0.39 -0.9,0.59 -1.57,0.59 -0.22,0 -0.42,-0.01 -0.61,-0.04 -0.19,-0.02 -0.37,-0.06 -0.54,-0.12l0.14 -1.38c0.18,0.05 0.32,0.09 0.43,0.11 0.11,0.02 0.2,0.03 0.28,0.03 0.35,0 0.63,-0.11 0.83,-0.33 0.2,-0.22 0.38,-0.59 0.53,-1.13l0.31 -1.12 -3.11 -10.28zm10.96 5.55c0,1.03 0.18,1.83 0.55,2.4 0.37,0.57 0.88,0.85 1.53,0.85 0.69,0 1.21,-0.32 1.56,-0.96 0.35,-0.64 0.53,-1.6 0.53,-2.86 0,-1.26 -0.17,-2.21 -0.52,-2.85 -0.35,-0.64 -0.87,-0.96 -1.55,-0.96 -0.66,0 -1.18,0.28 -1.55,0.84 -0.37,0.56 -0.55,1.36 -0.55,2.39l0 1.17zm-1.61 -10.2l1.61 0 0 5.97c0.29,-0.51 0.63,-0.88 1.02,-1.13 0.39,-0.25 0.83,-0.38 1.32,-0.38 1.19,0 2.08,0.43 2.67,1.29 0.59,0.86 0.89,2.15 0.89,3.87 0,1.68 -0.3,2.96 -0.88,3.84 -0.59,0.88 -1.44,1.31 -2.57,1.31 -0.57,0 -1.06,-0.13 -1.47,-0.4 -0.41,-0.26 -0.78,-0.68 -1.1,-1.26 0,0.02 0,0.06 0,0.1 -0.03,0.6 -0.05,1.06 -0.08,1.36l-1.41 0 0 -14.58zm13.12 5.79c-0.73,0 -1.28,0.33 -1.67,0.99 -0.39,0.66 -0.58,1.61 -0.58,2.84 0,1.23 0.19,2.17 0.58,2.82 0.39,0.65 0.94,0.98 1.67,0.98 0.72,0 1.28,-0.33 1.66,-0.98 0.39,-0.66 0.58,-1.6 0.58,-2.82 0,-1.23 -0.19,-2.18 -0.58,-2.84 -0.38,-0.66 -0.94,-0.99 -1.66,-0.99zm0 -1.33c1.27,0 2.25,0.45 2.94,1.33 0.69,0.89 1.03,2.17 1.03,3.83 0,1.66 -0.35,2.93 -1.03,3.82 -0.69,0.89 -1.67,1.33 -2.94,1.33 -1.28,0 -2.26,-0.45 -2.95,-1.33 -0.69,-0.89 -1.03,-2.17 -1.03,-3.82 0,-1.66 0.34,-2.93 1.03,-3.82 0.69,-0.9 1.67,-1.34 2.95,-1.34zm10.42 0.02l-0.01 1.62c-0.07,-0.01 -0.15,-0.01 -0.21,-0.02 -0.06,-0 -0.13,-0 -0.19,-0 -0.72,0 -1.27,0.25 -1.65,0.73 -0.38,0.49 -0.57,1.19 -0.57,2.1l0 5.67 -1.61 0 0 -7.44c0,-0.37 -0.01,-0.76 -0.03,-1.16 -0.01,-0.4 -0.04,-0.84 -0.07,-1.32l1.5 0c0.03,0.45 0.05,0.79 0.06,1.03 0.01,0.23 0.01,0.45 0.01,0.66 0.26,-0.62 0.6,-1.08 1.03,-1.39 0.43,-0.31 0.95,-0.47 1.56,-0.47l0.18 0zm6.75 4.46c0,-1 -0.18,-1.77 -0.55,-2.32 -0.37,-0.55 -0.89,-0.82 -1.56,-0.82 -0.69,0 -1.2,0.31 -1.55,0.93 -0.35,0.62 -0.52,1.55 -0.52,2.79 0,1.24 0.17,2.17 0.52,2.8 0.35,0.63 0.86,0.94 1.55,0.94 0.67,0 1.19,-0.27 1.56,-0.82 0.37,-0.55 0.55,-1.33 0.55,-2.34l0 -1.15zm0.12 -2.81c0.01,-0.39 0.03,-0.69 0.04,-0.91 0.01,-0.21 0.03,-0.4 0.04,-0.56l1.52 0c-0.02,0.58 -0.05,1.1 -0.06,1.56 -0.02,0.46 -0.02,0.8 -0.02,1.02l0 6.27c0,2 -0.33,3.4 -0.99,4.21 -0.67,0.81 -1.77,1.21 -3.33,1.21 -0.53,0 -1.02,-0.05 -1.49,-0.14 -0.47,-0.09 -0.92,-0.23 -1.37,-0.41l0.14 -1.51c0.45,0.25 0.89,0.44 1.33,0.56 0.44,0.12 0.9,0.17 1.39,0.17 0.97,0 1.66,-0.29 2.08,-0.88 0.42,-0.59 0.63,-1.56 0.63,-2.94 0,-0.07 -0.01,-0.18 -0.01,-0.32 -0.01,-0.15 -0.01,-0.26 -0.01,-0.35 -0.3,0.51 -0.64,0.88 -1.03,1.12 -0.4,0.24 -0.86,0.35 -1.41,0.35 -1.13,0 -2,-0.43 -2.58,-1.28 -0.59,-0.86 -0.88,-2.11 -0.88,-3.78 0,-1.63 0.3,-2.89 0.89,-3.76 0.59,-0.87 1.44,-1.3 2.55,-1.3 0.57,0 1.06,0.13 1.47,0.4 0.41,0.26 0.79,0.68 1.12,1.26z"/>
     <g>
      <path class="fil10" d="M-621.75 862.13c0.79,-1.16 0.99,-2.71 0.46,-4 -0.57,-1.37 -1.84,-2.19 -3.42,-2.19l-6.08 0c0.21,-1.24 0.49,-2.98 0.46,-3.37l0 0c-0.17,-2.57 -1.76,-5.59 -1.83,-5.72 -0.47,-0.88 -1.89,-1.55 -3.3,-1.55 -0.31,0 -0.62,0.03 -0.92,0.1 -2.29,0.49 -2.85,2.07 -2.82,2.94 0,0.14 0.06,2.61 0.08,3.65 -0.43,0.89 -1.23,2.31 -2.02,3.57 -0.86,1.38 -1.44,2.16 -1.77,2.54 -0.15,-0.03 -0.31,-0.04 -0.46,-0.04l-9.35 0c-1.4,0 -2.54,1.14 -2.54,2.54l0 12.96 0 0.04c0.1,1.27 1.18,2.27 2.46,2.27l8.4 0c0.95,0 1.77,-0.54 2.18,-1.33 0.47,0.22 1.04,0.39 1.69,0.39l12.53 0c2.84,0 4.09,-1.33 4.65,-2.44 0.55,-1.11 0.57,-2.34 0.36,-3.21 0.65,-1 0.99,-2.36 0.63,-3.6 0.56,-0.86 1.04,-2.16 0.61,-3.57z"/>
      <path class="fil11" d="M-623.03 861.94c1.63,-1.61 1.13,-4.89 -1.69,-4.89l-7.4 0.01c0.28,-1.56 0.69,-4.17 0.67,-4.41 -0.16,-2.32 -1.64,-5.15 -1.7,-5.27 -0.27,-0.51 -1.64,-1.19 -3.01,-0.89 -1.77,0.38 -1.96,1.51 -1.94,1.82 0,0 0.07,3.09 0.08,3.92 -0.85,1.86 -3.78,6.76 -4.66,7.13 -0.22,-0.13 -0.45,-0.19 -0.7,-0.19l-9.35 0c-0.8,0 -1.43,0.64 -1.43,1.43l0 12.92c0.05,0.7 0.65,1.24 1.35,1.24l8.4 0c0.74,0 1.35,-0.6 1.35,-1.35l0 -0.43c0,0 0.31,-0.02 0.45,0.07 0.54,0.34 1.21,0.78 2.08,0.78l12.53 0c4.68,0 4.18,-4.16 3.76,-4.73 0.79,-0.86 1.28,-2.38 0.61,-3.58 0.52,-0.55 1.42,-2.04 0.61,-3.59z"/>
      <polygon class="fil11" points="-644.7,873.42 -652.81,873.42 -652.81,860.52 -644.7,860.52 "/>
      <path class="fil10" d="M-625.21 861.83l-0.07 0.32c2.15,0.61 1,3.1 -0.54,3.26l-0.08 0.32c2.07,0.52 1.08,3.09 -0.54,3.26l-0.08 0.32c1.69,0.28 1.28,3.16 -1.28,3.16l-12.75 0.01c-0.9,0 -1.72,-1.03 -2.38,-1.03l-0.58 0 0 -9.92c0.72,-0.45 1.6,-1.03 2.09,-1.45 0.93,-0.79 4.73,-6.94 4.73,-7.71 0,-0.77 -0.08,-4.1 -0.08,-4.1 0,0 0.74,-0.96 2.41,-0.26 0,0 1.4,2.63 1.55,4.73 0,0 -0.63,4.31 -0.97,5.66l8.83 0c2.17,0.01 1.76,3.11 -0.28,3.43z"/>
      <path class="fil10" d="M-647.65 871.88c0,0.61 -0.49,1.1 -1.1,1.1 -0.61,0 -1.1,-0.49 -1.1,-1.1 0,-0.61 0.49,-1.1 1.1,-1.1 0.61,0 1.1,0.49 1.1,1.1z"/>
     </g>
     <path class="fil12" d="M-604.24 853.58c5.95,0 10.77,4.82 10.77,10.77 0,5.95 -4.82,10.77 -10.77,10.77 -5.95,0 -10.77,-4.82 -10.77,-10.77 0,-5.95 4.82,-10.77 10.77,-10.77z"/>
     <path class="fil11" d="M-603.13 856.65c0.33,-0.07 0.67,-0.04 1,-0.05 0.69,0 1.38,0 2.07,0 0,1.05 0,2.09 0,3.14 -0.84,0 -1.68,0 -2.52,-0 -0.1,-0 -0.2,0.03 -0.28,0.09 -0.18,0.13 -0.29,0.34 -0.33,0.56 -0.02,0.12 -0.02,0.25 -0.02,0.37 0,0.36 0,0.72 0,1.08 1.05,0 2.09,0 3.14,0 0,1.05 0,2.09 0,3.14 -1.05,0 -2.09,0 -3.14,-0 -0,2.38 -0,4.75 -0,7.13 -0.97,0 -1.95,0 -2.92,0 0,-2.38 0,-4.75 0,-7.13 -0.77,-0 -1.54,0 -2.31,-0 -0,-1.05 0,-2.09 -0,-3.14 0.77,-0 1.54,0 2.31,-0 0,-0.46 -0,-0.93 0,-1.39 0.04,-0.94 0.39,-1.87 1,-2.6 0.51,-0.6 1.21,-1.06 1.99,-1.2z"/>
    </g>
    <g>
     <g>
      <path class="fil12" d="M1126.96 862.32c-0.29,-1.36 -0.24,-6.5 0.07,-7.81 1.13,-4.72 7.54,-4.98 8.8,0.07 0.32,1.28 0.33,6.36 0.11,7.73l-8.97 0.01zm14.43 0c0.03,-4.51 0.72,-10.27 -1.79,-13.41 -5.46,-6.84 -17.76,-3.9 -18.1,5.14 -0.13,3.47 -0.37,11.65 0.07,14.83l30.96 -0.08 -0.07 -6.48 -11.07 0z"/>
      <path class="fil12" d="M1143.68 762.78c7.41,1.63 5.8,11.67 -4.86,9.82 -3.19,-0.56 -5.93,-3.6 -4.03,-7.24 1.27,-2.43 5.57,-3.31 8.89,-2.57zm-11.21 0.12c-1.4,1.29 -2.75,1.98 -3.35,4.66 -2.77,12.54 17.68,15.3 22.82,6.27 0.98,-1.72 1.64,-4.13 1.14,-6.56 -0.54,-2.62 -1.83,-3.24 -3.21,-4.64l2.66 0.01 0.02 -5.9 -31.08 0.06 0.04 6 10.96 0.1z"/>
      <path class="fil12" d="M1134.39 648.22c-1.26,-7.64 12.61,-7.79 13.76,-1.68 0.69,3.67 -2.66,5.69 -5.99,5.94 -3.86,0.3 -7.17,-0.66 -7.77,-4.26zm-3.25 -4.58c-4.39,4.05 -2.96,15.44 10.1,15.14 8.19,-0.18 13.1,-5.43 11.85,-11.76 -0.49,-2.46 -1.87,-3.41 -3.23,-4.65l2.67 -0.14 -0.05 -5.77 -30.99 0.02 0.05 6.04 10.88 0.01 -1.28 1.11z"/>
      <path class="fil12" d="M1121.47 691.97l0.07 6.72 21.38 6.57 -5.32 1.82c-4.88,1.54 -11.8,3.44 -16.11,4.99l0.02 6.94 31.04 -10.51 -0.01 -6.09 -31.05 -10.43z"/>
      <path class="fil12" d="M1141.5 831.26c2.83,-0.1 4.64,-0.2 5.97,1.63 1.03,1.41 1.97,4.35 0.67,5.8 -0.67,0.75 -3.78,1.51 -4.9,-1.31 -0.8,-2.01 -0.84,-3.95 -1.74,-6.12zm-5.28 7.44c-5.37,-2.66 -1.35,-9.05 1.08,-7.06 1.77,1.45 0.98,8.78 3.63,11.58 3.37,3.56 12.74,3.95 12.12,-6.56 -0.18,-2.98 -0.98,-3.79 -2.13,-5.61l1.61 -0.65 -0.03 -5.53c-3.12,-0.45 -9.43,-0.09 -12.89,-0.09 -4.26,0 -7.33,0.77 -9.17,3.53 -1.72,2.57 -4.23,15.53 6.5,16.34l-0.01 -5.54 -0.72 -0.42z"/>
      <path class="fil12" d="M1138.73 689.45c-2.47,-0.63 -4.86,-1.8 -4.78,-4.75 0.08,-2.83 2.24,-4.13 4.92,-4.57l-0.14 9.32zm7.12 -9.11c1.99,1.48 2.79,3.45 1.92,6 -0.68,2 -2.48,3.05 -4.97,3.29l-0.02 -15.71c-6.92,-0.6 -12.71,2.47 -13.68,8.38 -1.21,7.33 2.62,12.18 8.63,13.22 18.62,3.25 19.35,-18.73 8.04,-21.31l0.07 6.13z"/>
      <path class="fil12" d="M1138.78 628.69c-2.53,-0.51 -4.93,-1.84 -4.83,-4.79 0.1,-2.98 2.16,-3.94 4.91,-4.53l-0.08 9.32zm7.04 -9.15c1.08,0.9 1.39,0.85 1.93,2.42 0.4,1.18 0.39,2.49 0.01,3.58 -0.67,1.93 -2.41,3.12 -4.97,3.33 0.02,-4.78 0.17,-11.1 -0.04,-15.72 -6.88,-0.5 -13.87,2.3 -13.82,11 0.07,11.93 13.18,12.41 19.31,9.19 6.49,-3.4 7.32,-17.19 -2.48,-19.92l0.05 6.11z"/>
      <path class="fil12" d="M1137.55 794.48c3.85,0.01 12.71,-0.92 10.23,5.04 -0.86,2.08 -3.45,1.86 -6,1.86 -2.52,-0.01 -5.32,0.12 -7.83,-0.05l0.02 -12.58 -4.52 -0.02 -0.02 12.63 -6.01 0.11 -0.02 5.88c3.56,0.58 12.11,0.11 16.2,0.11 6.02,0 9.81,0.31 12.43,-3.94 2.27,-3.69 1.53,-9.96 -1.13,-12.33 -2.97,-2.64 -8.62,-2.41 -13.47,-2.43l0.11 5.74z"/>
      <path class="fil12" d="M1134.44 745.07c-2.92,-8.76 11.68,-9.41 13.37,-3.74 1.28,4.29 -1.24,6.75 -4.73,7.28 -3.54,0.54 -7.41,0.13 -8.64,-3.54zm8.42 9.9c6.72,-0.69 10.95,-5.92 10.12,-13.57 -0.73,-6.69 -6.38,-10.6 -13.92,-9.75 -6.73,0.76 -10.95,5.89 -10.03,13.56 0.8,6.7 6.26,10.54 13.83,9.76z"/>
      <path class="fil12" d="M1152.54 816.37c-2.92,-0.57 -8.98,0.04 -12.36,-0.13 -4.35,-0.22 -5.26,-2.93 -4.91,-7.22l-6.16 0.05c0,5 1.13,4.91 3.13,7.53l-2.77 0 -0.04 5.76 23.11 -0.13 0 -5.85z"/>
      <path class="fil12" d="M1152.49 666.1c-9.53,-0.88 -18.47,3.01 -17.18,-7.3l-6.22 0.08c0.11,2.42 0.06,4.25 1.84,5.98 0.32,0.31 0.43,0.35 0.69,0.68 0.55,0.71 0.12,0.01 0.5,0.84l-2.65 0.05 -0.01 5.69 23.07 -0.07 -0.04 -5.96z"/>
      <polygon class="fil12" points="1152.54,786.89 1152.53,780.7 1129.45,780.69 1129.42,786.86 "/>
      <polygon class="fil12" points="1122.51,786.87 1126.85,786.86 1126.83,785.37 1126.83,784.56 1126.83,782.66 1126.83,780.74 1123.33,780.7 1121.1,780.7 1121.11,786.86 "/>
     </g>
     <g>
      <path class="fil12" d="M1114.8 911.66c-0.34,-3.41 0.61,-6.23 1.73,-8.89 1.65,-3.93 3.63,-5.99 6.42,-8.38 0.26,-0.23 0.53,-0.38 0.79,-0.54l1.67 -0.99c0.33,-0.19 0.49,-0.34 0.82,-0.52 1.46,-0.75 1.86,-0.68 3.25,-0.8 2.81,-0.25 4.57,0.01 7.04,0.92 0.48,0.17 0.48,0.29 0.94,0.47 2.29,0.91 2.21,1.09 4.23,2.42l3.92 2.82c1.28,0.96 2.07,1.8 2.89,2.43 0.88,0.68 1.35,1.31 2,2.07 0.4,0.48 0.8,0.97 1.18,1.48 0.79,1.05 1.44,1.59 2.27,3.05 1.42,2.49 2.31,4.65 2.82,7.9 0.45,2.87 0.44,6.79 -0.62,9.51 -0.77,1.98 -1.53,3.63 -2.87,5.19 -1.26,1.46 -2.63,2.68 -4.47,3.6 -1.37,0.68 -2.51,0.89 -4.1,1.22 -4.05,0.85 -9.63,-0.44 -13.09,-2.6 -1.96,-1.22 -2.92,-1.94 -4.51,-3.55l-1.24 -1.41c-0.78,-0.91 -1.56,-2.04 -2.24,-3.08 -0.17,-0.27 -0.38,-0.54 -0.58,-0.83 -1.13,-1.64 -2.72,-3.15 -4.88,-3.07l-0.87 0.11c-0.24,0.01 -0.09,0.05 -0.23,-0.04 -0.08,-0.05 -0.77,-1.58 -0.88,-1.87 -0.92,-2.43 -1.13,-4 -1.4,-6.61zm7.63 21.45c0.91,0.48 3.66,3.5 4.74,4.2 0.23,0.15 0.37,0.22 0.57,0.34 0.87,0.54 1.98,1.35 2.78,1.8 2.89,1.61 7,3.44 11.01,3.54 2.39,0.06 4.32,-0.34 6.44,-0.78 2.59,-0.54 4.29,-1.58 6.25,-2.82 0.8,-0.5 1.19,-1.01 1.5,-1.25 1.85,-1.43 4.61,-5.79 5.92,-7.72 0.5,-0.73 0.92,-1.44 1.35,-2.31 2.65,-5.35 1.88,-12.77 -0.28,-18.01 -2.42,-5.86 -4.38,-8.89 -8.3,-13.49 -0.33,-0.39 -2.39,-2.41 -2.79,-2.7 -0.61,-0.43 -1.6,-1.72 -2.84,-2.56l-4.34 -2.89c-0.68,-0.44 -1.12,-0.63 -1.66,-1.09 -0.55,-0.47 -2.24,-1.29 -2.91,-1.58 -0.43,-0.18 -0.9,-0.33 -1.31,-0.52 -0.66,-0.31 -0.72,-0.21 -1.42,-0.4 -2.02,-0.55 -3.88,-1.2 -6.16,-1.19 -1.22,0 -2.17,-0.11 -3.41,0.02 -2,0.21 -6.06,2.16 -7.67,3.32 -2.17,1.56 -3.98,3.2 -5.7,5.2 -1.66,1.92 -2.87,4.8 -3.61,7.28 -0.32,1.07 -0.44,1.9 -0.42,3.17 0.03,1.29 -0.16,2.22 -0.2,3.41 -0.09,2.44 -0.3,4.34 0.1,6.63 0.18,1.03 0.43,1.91 0.58,3.06 0.36,2.75 0.79,3.25 1.68,5.56l1.84 3.65 3.38 5.68c0.44,0.75 0.92,1.45 1.44,2.22 1.3,1.92 3.32,3.39 3.45,0.25z"/>
      <path class="fil12" d="M1137.19 915.54c-1.21,0.34 -2.22,0.53 -3.56,0.67 -0.59,0.06 -2.16,0.62 -3.4,0.85 -2.28,0.42 -4.96,-0.22 -6.03,2.45 -0.89,2.24 0.29,4.32 2.35,5.38 1.83,0.93 5.12,-0.35 6.94,-0.81l3.53 -0.71c1.36,-0.14 2.43,-0.17 3.78,-0.46 1.24,-0.27 2.13,-0.69 3.4,-0.83 1.31,-0.15 2.66,-0.16 3.92,-0.31 2.64,-0.32 4.98,-0.45 5.57,-2.93 0.32,-1.33 -0.25,-2.51 -0.91,-3.22 -1.57,-1.69 -5.58,-2.33 -7.87,-3.86 -0.84,-0.56 -0.6,-0.49 -1.9,-1.26 -0.22,-0.13 -0.42,-0.25 -0.66,-0.42 -0.83,-0.59 -2.08,-1.33 -3.19,-2.13 -1.62,-1.16 -6.07,-3.74 -8.13,-4.6 -1.46,-0.61 -5.23,-2.07 -6.72,-1.33 -1.8,0.9 -3.4,5.4 1.79,7.59 1.34,0.56 1.45,0.5 2.89,1.35 0.93,0.55 1.84,1 2.75,1.49l2.69 1.56c0.83,0.51 1.89,1.08 2.74,1.55z"/>
     </g>
    </g>
   </g>
   <g style="clip-path:url(#id1)">
    <image id="Cyborg_x0020_2016.psd" x="-765.58" y="448.4" width="218.44" height="288.73" xlink:href="logo_Images\logo_ImgID1.png"/>
   </g>
   <g style="clip-path:url(#id2)">
   </g>
  </g>
  <polygon class="fil0" points="9.55,9.19 294.48,9.19 294.48,129.05 9.08,129.05 "/>
  <path class="fil4" d="M31.78 92.73l239.95 0c0.09,0 -0.09,1.42 -0.39,3.17l-2.83 16.37c-0.3,1.76 -0.62,3.17 -0.71,3.17l-239.95 0c-0.09,0 0.09,-1.42 0.39,-3.17l2.83 -16.37c0.3,-1.76 0.62,-3.17 0.71,-3.17zm31.66 -42.41c-0.84,-0.46 -1.64,-0.77 -2.4,-0.96 -0.75,-0.18 -1.52,-0.28 -2.29,-0.28 -1.56,0 -2.98,0.34 -4.25,1.03 -0.5,0.54 -0.97,1.16 -1.41,1.85 -2.05,3.21 -3.07,7.47 -3.07,12.77 0,3.4 0.61,5.93 1.86,7.57 1.23,1.65 3.12,2.47 5.67,2.47 0.61,0 1.28,-0.06 2,-0.19 0.71,-0.13 1.47,-0.32 2.28,-0.58l-2.2 12.38c-0.7,0.29 -1.45,0.52 -2.24,0.7l-0.22 1.23c-0.99,0.41 -2.06,0.7 -3.22,0.89 -1.15,0.18 -2.47,0.28 -3.95,0.28 -5.81,0 -10.26,-1.69 -13.34,-5.07 -3.08,-3.38 -4.61,-8.28 -4.61,-14.72 0,-10.08 2.33,-18.18 6.99,-24.32 1.7,-2.24 3.6,-4.07 5.7,-5.49 4.17,-3.77 9.27,-5.65 15.3,-5.65 1.41,0 2.8,0.12 4.14,0.37 1.34,0.24 2.68,0.6 3.99,1.07l-2.27 12.72c-0.69,-0.37 -1.34,-0.65 -1.97,-0.84l-0.49 2.77zm8.56 -15.15l15.2 0 1.13 12.37 4.21 -10.44 1.68 0 0.78 -1.93 15.23 0 -16.82 30.78 -3.24 20.64 -2.16 0 -0.3 1.93 -14.39 0 3.33 -20.64 -7.1 -30.78 2.91 0 -0.45 -1.93zm41.61 1.93l0.31 -1.93 13.31 0c6.45,0 11.09,0.93 13.92,2.78 2.83,1.86 4.24,4.88 4.24,9.05 0,3.38 -0.92,6.12 -2.76,8.21 -0.76,0.87 -1.69,1.62 -2.77,2.27 -1.01,1.05 -2.28,1.93 -3.79,2.64 1.9,0.78 3.43,1.92 4.58,3.4 1.47,1.9 2.21,4.21 2.21,6.9 0,2.42 -0.51,4.7 -1.52,6.85 -1.01,2.15 -2.44,3.96 -4.28,5.41 -0.44,0.36 -0.91,0.7 -1.39,1.01 -0.34,0.32 -0.69,0.63 -1.07,0.92 -1.69,1.38 -3.69,2.38 -5.98,2.99 -2.3,0.61 -5.37,0.91 -9.2,0.91l-16.15 0 8.2 -51.42 2.15 0zm8.04 38.74c0.24,0.05 0.48,0.08 0.75,0.11 0.25,0.03 0.58,0.04 0.99,0.04 0.63,0 1.21,-0.08 1.72,-0.24 0.66,-1.09 1,-2.55 1,-4.38 0,-1.62 -0.4,-2.84 -1.21,-3.64 -0.48,-0.49 -1.12,-0.83 -1.91,-1.03l-1.35 9.14zm3.18 -20.85c0.18,0.02 0.39,0.04 0.59,0.05 0.22,0.01 0.54,0.02 0.99,0.02 0.75,0 1.43,-0.1 2.04,-0.3 0.47,-0.77 0.7,-1.71 0.7,-2.8 0,-1.31 -0.37,-2.31 -1.11,-2.97 -0.52,-0.47 -1.22,-0.78 -2.08,-0.92l-1.13 6.92zm38 14.44c0,1.92 0.26,3.33 0.77,4.21 0.51,0.87 1.35,1.32 2.48,1.32 0.27,0 0.54,-0.03 0.8,-0.09 0.49,-0.76 0.94,-1.77 1.36,-3.01 0.78,-2.27 1.42,-5.03 1.89,-8.26 0.48,-3.22 0.72,-6.29 0.72,-9.2 0,-1.92 -0.25,-3.34 -0.75,-4.24 -0.49,-0.9 -1.25,-1.36 -2.29,-1.36 -0.36,0 -0.71,0.04 -1.03,0.13 -0.47,0.74 -0.9,1.71 -1.27,2.91 -0.78,2.37 -1.42,5.18 -1.93,8.45 -0.51,3.26 -0.76,6.31 -0.76,9.15zm-4.27 -30.26c1.21,-1.11 2.49,-2.04 3.86,-2.77 2.72,-1.45 5.82,-2.19 9.31,-2.19 4.97,0 8.93,1.73 11.84,5.19 2.92,3.46 4.38,8.18 4.38,14.14 0,4.8 -0.61,9.41 -1.83,13.88 -1.23,4.47 -2.92,8.26 -5.05,11.39 -1.66,2.43 -3.57,4.35 -5.74,5.78 -1.19,1.1 -2.47,2.02 -3.85,2.76 -2.74,1.47 -5.86,2.2 -9.37,2.2 -4.88,0 -8.81,-1.76 -11.77,-5.28 -2.96,-3.52 -4.45,-8.21 -4.45,-14.06 0,-4.77 0.62,-9.4 1.86,-13.91 1.23,-4.51 2.91,-8.3 5.03,-11.35 1.71,-2.44 3.64,-4.36 5.79,-5.77zm49.44 18.92l0.77 0c1.09,0 2.06,-0.17 2.9,-0.51 0.98,-1.35 1.47,-3.2 1.47,-5.55 0,-1.48 -0.37,-2.56 -1.13,-3.27 -0.56,-0.53 -1.35,-0.86 -2.37,-0.99l-1.64 10.32zm-11.09 -21l0.31 -1.93 12.16 0c7.63,0 12.9,1 15.77,2.99 2.88,1.99 4.33,5.4 4.33,10.22 0,4.2 -0.92,7.65 -2.74,10.35 -1.04,1.55 -2.35,2.8 -3.93,3.74 -1.05,1.07 -2.28,1.93 -3.69,2.58l6.09 21.53 -3.01 0 0.55 1.93 -15.27 0 -2.17 -13.88 -1.86 11.94 -2.16 0 -0.3 1.93 -14.42 0 8.2 -51.42 2.15 0zm54.87 19.76l18.44 0c-0.4,10.43 -2.4,18.16 -6,23.19 -1.35,1.89 -2.95,3.43 -4.78,4.61 -3.44,3.26 -7.99,4.89 -13.64,4.89 -5.46,0 -9.64,-1.67 -12.49,-5.01 -2.86,-3.35 -4.29,-8.2 -4.29,-14.54 0,-4.95 0.6,-9.69 1.78,-14.16 1.19,-4.48 2.86,-8.3 5.01,-11.45 1.46,-2.15 3.2,-3.89 5.24,-5.21 1.26,-1.18 2.66,-2.16 4.21,-2.94 2.8,-1.39 6.02,-2.09 9.65,-2.09 4.52,0 8.2,1.05 11.03,3.15 2.85,2.1 4.63,5.12 5.39,9.04l-2.67 0.98c0.08,0.31 0.15,0.63 0.21,0.95l-13.25 4.88c-0.37,-1.61 -0.87,-2.74 -1.46,-3.39 -0.6,-0.64 -1.44,-0.96 -2.5,-0.96 -0.44,0 -0.85,0.06 -1.25,0.18 -0.49,0.7 -0.92,1.58 -1.31,2.64 -0.8,2.28 -1.51,5.21 -2.12,8.79 -0.61,3.58 -0.92,6.66 -0.92,9.25 0,1.97 0.28,3.37 0.83,4.17 0.56,0.8 1.48,1.21 2.81,1.21 0.54,0 1.04,-0.08 1.5,-0.23 0.94,-1.38 1.49,-3.32 1.66,-5.84l-4.92 0 1.39 -10.18 2.2 0 0.26 -1.93z"/>
  <path class="fil13" d="M31.78 92.73l239.95 0c0.09,0 -0.09,1.42 -0.39,3.17l-2.83 16.37c-0.3,1.76 -0.62,3.17 -0.71,3.17l-239.95 0c-0.09,0 0.09,-1.42 0.39,-3.17l2.83 -16.37c0.3,-1.76 0.62,-3.17 0.71,-3.17z"/>
  <path class="fil6" d="M41.09 103.68l0.69 0c0.84,0 1.43,-0.16 1.79,-0.49 0.35,-0.33 0.53,-0.86 0.53,-1.62 0,-0.73 -0.19,-1.25 -0.57,-1.57 -0.38,-0.32 -1,-0.48 -1.89,-0.48l-0.56 0 0 4.15zm-1.87 7.26l0 -12.94 2.27 0c0.84,0 1.5,0.06 1.97,0.17 0.47,0.11 0.87,0.3 1.22,0.56 0.4,0.31 0.72,0.72 0.95,1.22 0.22,0.51 0.34,1.07 0.34,1.69 0,1.18 -0.37,2.08 -1.1,2.69 -0.74,0.61 -1.81,0.92 -3.23,0.92 -0.15,0 -0.27,-0 -0.34,-0.01 -0.08,-0 -0.14,-0.01 -0.2,-0.01l0 5.7 -1.87 0zm12.93 -9.59l-1.25 5.6 2.49 0 -1.24 -5.6zm-4.13 9.59l3.24 -12.94 1.76 0 3.24 12.94 -1.89 0 -0.66 -2.54 -3.16 0 -0.64 2.54 -1.89 0zm13.76 -7.31l0.58 0c0.76,0 1.3,-0.17 1.61,-0.5 0.31,-0.33 0.47,-0.92 0.47,-1.75 0,-0.7 -0.15,-1.18 -0.45,-1.45 -0.3,-0.27 -0.87,-0.4 -1.69,-0.4l-0.53 0 0 4.1zm0 1l0 6.31 -1.87 0 0 -12.94 2.26 0c1.5,0 2.57,0.26 3.2,0.78 0.63,0.52 0.95,1.39 0.95,2.6 0,0.96 -0.22,1.7 -0.65,2.24 -0.43,0.54 -1.08,0.85 -1.95,0.95l3.29 6.37 -2 0 -3.17 -6.31 -0.06 0zm14.57 6.02c-0.31,0.15 -0.62,0.27 -0.94,0.34 -0.32,0.08 -0.65,0.11 -1.01,0.11 -1.42,0 -2.48,-0.54 -3.18,-1.62 -0.7,-1.08 -1.05,-2.71 -1.05,-4.89 0,-2.22 0.38,-3.9 1.12,-5.04 0.75,-1.14 1.86,-1.71 3.33,-1.71 0.32,0 0.63,0.03 0.91,0.09 0.29,0.06 0.56,0.15 0.82,0.26l0 1.65c-0.27,-0.12 -0.52,-0.21 -0.76,-0.28 -0.24,-0.06 -0.47,-0.09 -0.69,-0.09 -0.99,0 -1.72,0.41 -2.18,1.22 -0.46,0.81 -0.68,2.1 -0.68,3.88 0,1.65 0.22,2.88 0.65,3.67 0.43,0.8 1.1,1.19 2.01,1.19 0.26,0 0.52,-0.04 0.79,-0.12 0.27,-0.08 0.55,-0.2 0.86,-0.37l0 1.71zm3.86 0.29l0 -12.94 5.54 0 0 1.56 -3.67 0 0 3.85 3.36 0 0 1.54 -3.36 0 0 4.37 3.67 0 0 1.61 -5.54 0zm9.77 0l0 -12.94 1.87 0 0 12.94 -1.87 0zm8.49 -7.31l0.58 0c0.76,0 1.3,-0.17 1.61,-0.5 0.31,-0.33 0.47,-0.92 0.47,-1.75 0,-0.7 -0.15,-1.18 -0.45,-1.45 -0.3,-0.27 -0.87,-0.4 -1.69,-0.4l-0.53 0 0 4.1zm0 1l0 6.31 -1.87 0 0 -12.94 2.26 0c1.5,0 2.56,0.26 3.2,0.78 0.63,0.52 0.95,1.39 0.95,2.6 0,0.96 -0.22,1.7 -0.65,2.24 -0.43,0.54 -1.09,0.85 -1.95,0.95l3.29 6.37 -2 0 -3.17 -6.31 -0.06 0zm10.32 -0.18c0,1.83 0.16,3.12 0.48,3.88 0.32,0.75 0.85,1.13 1.6,1.13 0.74,0 1.26,-0.36 1.56,-1.07 0.3,-0.71 0.46,-2.03 0.46,-3.93 0,-1.86 -0.15,-3.16 -0.47,-3.89 -0.31,-0.73 -0.83,-1.1 -1.57,-1.1 -0.75,0 -1.28,0.37 -1.59,1.11 -0.31,0.74 -0.47,2.03 -0.47,3.88zm-1.89 0.04c0,-2.37 0.31,-4.07 0.92,-5.1 0.62,-1.03 1.63,-1.55 3.02,-1.55 1.39,0 2.39,0.51 3.01,1.54 0.61,1.02 0.92,2.73 0.92,5.11 0,2.37 -0.31,4.06 -0.92,5.09 -0.61,1.02 -1.62,1.53 -3.01,1.53 -1.4,0 -2.4,-0.51 -3.02,-1.53 -0.62,-1.02 -0.92,-2.72 -0.92,-5.09zm21.59 4.79l0.97 0c1.05,0 1.79,-0.35 2.22,-1.06 0.43,-0.71 0.64,-1.96 0.64,-3.76 0,-1.79 -0.21,-3.04 -0.63,-3.75 -0.42,-0.7 -1.17,-1.06 -2.22,-1.06l-0.97 0 0 9.63zm-1.89 1.67l0 -12.94 2.47 0c1.89,0 3.21,0.48 3.98,1.45 0.77,0.96 1.15,2.64 1.15,5.01 0,2.38 -0.39,4.05 -1.15,5.02 -0.77,0.97 -2.1,1.45 -3.98,1.45l-2.47 0zm14.57 -9.59l-1.25 5.6 2.49 0 -1.24 -5.6zm-4.13 9.59l3.24 -12.94 1.76 0 3.24 12.94 -1.89 0 -0.66 -2.54 -3.16 0 -0.64 2.54 -1.89 0zm25.12 -0.29c-0.31,0.15 -0.62,0.27 -0.94,0.34 -0.32,0.08 -0.65,0.11 -1.01,0.11 -1.42,0 -2.48,-0.54 -3.18,-1.62 -0.7,-1.08 -1.05,-2.71 -1.05,-4.89 0,-2.22 0.37,-3.9 1.12,-5.04 0.75,-1.14 1.86,-1.71 3.33,-1.71 0.32,0 0.63,0.03 0.91,0.09 0.29,0.06 0.56,0.15 0.82,0.26l0 1.65c-0.27,-0.12 -0.52,-0.21 -0.76,-0.28 -0.24,-0.06 -0.47,-0.09 -0.69,-0.09 -0.99,0 -1.72,0.41 -2.18,1.22 -0.46,0.81 -0.68,2.1 -0.68,3.88 0,1.65 0.22,2.88 0.65,3.67 0.43,0.8 1.1,1.19 2.01,1.19 0.26,0 0.52,-0.04 0.79,-0.12 0.27,-0.08 0.55,-0.2 0.86,-0.37l0 1.71zm5.4 -6.2c0,1.83 0.16,3.12 0.48,3.88 0.32,0.75 0.85,1.13 1.6,1.13 0.74,0 1.26,-0.36 1.56,-1.07 0.3,-0.71 0.46,-2.03 0.46,-3.93 0,-1.86 -0.15,-3.16 -0.47,-3.89 -0.31,-0.73 -0.83,-1.1 -1.57,-1.1 -0.75,0 -1.28,0.37 -1.59,1.11 -0.31,0.74 -0.47,2.03 -0.47,3.88zm-1.89 0.04c0,-2.37 0.31,-4.07 0.92,-5.1 0.62,-1.03 1.63,-1.55 3.02,-1.55 1.39,0 2.39,0.51 3.01,1.54 0.61,1.02 0.92,2.73 0.92,5.11 0,2.37 -0.31,4.06 -0.92,5.09 -0.61,1.02 -1.62,1.53 -3.01,1.53 -1.4,0 -2.4,-0.51 -3.02,-1.53 -0.62,-1.02 -0.92,-2.72 -0.92,-5.09zm11.64 6.46l1.19 -12.94 1.69 0 1.88 8.96 1.93 -8.96 1.63 0 1.21 12.94 -1.73 0 -0.56 -9.07 -1.85 9.07 -1.26 0 -1.85 -9.07 -0.56 9.07 -1.71 0zm13.56 -3.45l0 -9.49 1.85 0 0 9.63c0,0.62 0.15,1.08 0.45,1.37 0.29,0.3 0.75,0.44 1.37,0.44 0.61,0 1.07,-0.15 1.36,-0.44 0.29,-0.29 0.44,-0.75 0.44,-1.37l0 -9.63 1.85 0 0 9.49c0,1.25 -0.29,2.17 -0.88,2.74 -0.59,0.58 -1.51,0.87 -2.78,0.87 -1.27,0 -2.19,-0.29 -2.78,-0.87 -0.59,-0.58 -0.88,-1.49 -0.88,-2.74zm11.91 3.45l0 -12.94 1.73 0 3.67 8.98 0 -8.98 1.77 0 0 12.94 -1.75 0 -3.66 -9.06 0 9.06 -1.77 0zm11.89 0l0 -12.94 1.87 0 0 12.94 -1.87 0zm8.51 -1.67l0.97 0c1.05,0 1.79,-0.35 2.22,-1.06 0.43,-0.71 0.64,-1.96 0.64,-3.76 0,-1.79 -0.21,-3.04 -0.64,-3.75 -0.42,-0.7 -1.17,-1.06 -2.22,-1.06l-0.97 0 0 9.63zm-1.89 1.67l0 -12.94 2.47 0c1.89,0 3.21,0.48 3.98,1.45 0.77,0.96 1.15,2.64 1.15,5.01 0,2.38 -0.39,4.05 -1.15,5.02 -0.77,0.97 -2.1,1.45 -3.98,1.45l-2.47 0zm14.57 -9.59l-1.25 5.6 2.49 0 -1.24 -5.6zm-4.13 9.59l3.24 -12.94 1.76 0 3.24 12.94 -1.89 0 -0.66 -2.54 -3.16 0 -0.64 2.54 -1.89 0zm13.78 -1.67l0.97 0c1.05,0 1.79,-0.35 2.22,-1.06 0.43,-0.71 0.64,-1.96 0.64,-3.76 0,-1.79 -0.21,-3.04 -0.63,-3.75 -0.42,-0.7 -1.17,-1.06 -2.22,-1.06l-0.97 0 0 9.63zm-1.89 1.67l0 -12.94 2.47 0c1.89,0 3.21,0.48 3.98,1.45 0.77,0.96 1.15,2.64 1.15,5.01 0,2.38 -0.39,4.05 -1.15,5.02 -0.77,0.97 -2.1,1.45 -3.98,1.45l-2.47 0zm11.82 0l0 -12.94 5.54 0 0 1.56 -3.67 0 0 3.85 3.36 0 0 1.54 -3.36 0 0 4.37 3.67 0 0 1.61 -5.54 0z"/>
  <path class="fil14" d="M63.44 50.33c-0.84,-0.46 -1.64,-0.77 -2.4,-0.96 -0.75,-0.18 -1.52,-0.28 -2.29,-0.28 -3.38,0 -6.08,1.6 -8.13,4.81 -2.05,3.21 -3.08,7.47 -3.08,12.77 0,3.4 0.61,5.93 1.86,7.57 1.23,1.65 3.12,2.47 5.67,2.47 0.61,0 1.28,-0.06 2,-0.19 0.71,-0.13 1.47,-0.32 2.28,-0.58l-2.2 12.38c-0.99,0.41 -2.06,0.7 -3.22,0.89 -1.15,0.18 -2.47,0.28 -3.95,0.28 -5.81,0 -10.26,-1.69 -13.34,-5.07 -3.07,-3.38 -4.61,-8.28 -4.61,-14.72 0,-10.08 2.33,-18.18 6.99,-24.32 4.67,-6.14 10.84,-9.21 18.55,-9.21 1.41,0 2.8,0.12 4.14,0.37 1.34,0.24 2.68,0.6 3.99,1.07l-2.27 12.72zm6.1 -13.21l15.19 0 1.45 15.78 6.36 -15.78 15.23 0 -16.82 30.78 -3.24 20.64 -14.39 0 3.33 -20.64 -7.1 -30.78zm33.72 51.42l8.2 -51.42 13.31 0c6.45,0 11.09,0.93 13.92,2.78 2.83,1.86 4.24,4.88 4.24,9.05 0,3.38 -0.92,6.12 -2.76,8.21 -1.83,2.08 -4.59,3.54 -8.26,4.33 2.7,0.75 4.8,2.08 6.27,3.98 1.47,1.9 2.21,4.21 2.21,6.9 0,2.42 -0.51,4.7 -1.52,6.85 -1.01,2.15 -2.43,3.96 -4.28,5.41 -1.69,1.38 -3.69,2.38 -5.98,2.99 -2.3,0.61 -5.37,0.91 -9.2,0.91l-16.15 0zm15.93 -10.75c0.24,0.05 0.48,0.08 0.75,0.11 0.25,0.03 0.58,0.04 0.99,0.04 1.69,0 2.98,-0.57 3.86,-1.7 0.88,-1.13 1.33,-2.74 1.33,-4.86 0,-1.62 -0.4,-2.84 -1.2,-3.64 -0.8,-0.81 -2.01,-1.21 -3.63,-1.21l-0.42 0 -1.66 11.27zm3.18 -20.85c0.18,0.02 0.39,0.04 0.59,0.05 0.22,0.01 0.54,0.02 0.99,0.02 1.6,0 2.87,-0.46 3.8,-1.36 0.93,-0.9 1.4,-2.13 1.4,-3.68 0,-1.31 -0.37,-2.31 -1.11,-2.97 -0.75,-0.67 -1.83,-1.01 -3.27,-1.01 -0.12,0 -0.29,0.01 -0.49,0.04 -0.22,0.02 -0.37,0.04 -0.46,0.04l-1.45 8.87zm38 14.44c0,1.92 0.26,3.33 0.77,4.21 0.51,0.87 1.35,1.32 2.48,1.32 1,0 1.89,-0.4 2.63,-1.2 0.73,-0.79 1.4,-2.07 1.99,-3.83 0.78,-2.27 1.42,-5.03 1.89,-8.26 0.48,-3.22 0.72,-6.29 0.72,-9.2 0,-1.92 -0.25,-3.34 -0.75,-4.24 -0.49,-0.9 -1.25,-1.36 -2.29,-1.36 -1.11,0 -2.04,0.4 -2.81,1.18 -0.76,0.79 -1.41,2.04 -1.95,3.79 -0.78,2.37 -1.42,5.18 -1.93,8.45 -0.51,3.26 -0.76,6.31 -0.76,9.15zm1.74 18.18c-4.88,0 -8.81,-1.76 -11.77,-5.28 -2.96,-3.52 -4.45,-8.21 -4.45,-14.06 0,-4.77 0.61,-9.4 1.86,-13.91 1.23,-4.51 2.91,-8.3 5.03,-11.35 2.07,-2.96 4.47,-5.16 7.19,-6.61 2.72,-1.45 5.82,-2.19 9.31,-2.19 4.97,0 8.93,1.73 11.84,5.19 2.92,3.46 4.38,8.18 4.38,14.14 0,4.8 -0.61,9.41 -1.83,13.87 -1.23,4.47 -2.92,8.26 -5.05,11.39 -2,2.93 -4.38,5.13 -7.13,6.6 -2.74,1.47 -5.86,2.2 -9.37,2.2zm43.43 -29.52l0.77 0c2.2,0 3.88,-0.68 5.05,-2.06 1.18,-1.37 1.77,-3.35 1.77,-5.94 0,-1.48 -0.37,-2.56 -1.13,-3.27 -0.75,-0.71 -1.92,-1.06 -3.5,-1.06 -0.1,0 -0.25,0.01 -0.47,0.04 -0.23,0.02 -0.41,0.04 -0.55,0.04l-1.94 12.25zm-18.98 28.5l8.2 -51.42 12.16 0c7.63,0 12.9,1 15.77,2.99 2.88,1.99 4.33,5.4 4.33,10.22 0,4.2 -0.92,7.65 -2.74,10.35 -1.82,2.7 -4.45,4.48 -7.9,5.35l6.37 22.51 -15.27 0 -3.26 -20.78 -3.24 20.78 -14.42 0zm62.76 -29.73l18.44 0c-0.4,10.43 -2.4,18.16 -6.01,23.19 -3.61,5.04 -8.92,7.56 -15.97,7.56 -5.46,0 -9.64,-1.67 -12.49,-5.01 -2.86,-3.35 -4.29,-8.2 -4.29,-14.54 0,-4.95 0.6,-9.69 1.78,-14.16 1.19,-4.48 2.86,-8.3 5.01,-11.45 1.86,-2.74 4.18,-4.81 6.99,-6.22 2.8,-1.39 6.02,-2.09 9.65,-2.09 4.52,0 8.2,1.05 11.03,3.15 2.85,2.1 4.63,5.12 5.39,9.04l-13.25 4.88c-0.37,-1.61 -0.87,-2.74 -1.46,-3.39 -0.6,-0.64 -1.44,-0.96 -2.5,-0.96 -1.11,0 -2.08,0.39 -2.9,1.17 -0.83,0.77 -1.53,1.97 -2.12,3.58 -0.8,2.28 -1.51,5.21 -2.12,8.79 -0.61,3.58 -0.92,6.66 -0.92,9.25 0,1.97 0.28,3.37 0.83,4.17 0.56,0.8 1.48,1.21 2.81,1.21 1.63,0 2.92,-0.7 3.91,-2.08 0.98,-1.38 1.54,-3.35 1.71,-5.92l-4.92 0 1.39 -10.18z"/>
  <path class="fil15" d="M65.9 48.39c-0.84,-0.46 -1.64,-0.77 -2.4,-0.96 -0.75,-0.18 -1.52,-0.28 -2.29,-0.28 -3.38,0 -6.08,1.6 -8.13,4.81 -2.05,3.21 -3.07,7.47 -3.07,12.77 0,3.4 0.61,5.93 1.86,7.57 1.23,1.65 3.12,2.47 5.67,2.47 0.61,0 1.28,-0.06 2,-0.19 0.71,-0.13 1.47,-0.32 2.28,-0.58l-2.2 12.38c-0.99,0.41 -2.06,0.7 -3.22,0.89 -1.15,0.18 -2.47,0.28 -3.95,0.28 -5.81,0 -10.26,-1.69 -13.34,-5.07 -3.08,-3.38 -4.61,-8.28 -4.61,-14.72 0,-10.08 2.33,-18.18 6.99,-24.32 4.67,-6.14 10.84,-9.21 18.55,-9.21 1.41,0 2.8,0.12 4.14,0.37 1.34,0.24 2.68,0.6 3.99,1.07l-2.27 12.72zm6.1 -13.21l15.19 0 1.45 15.78 6.36 -15.78 15.23 0 -16.82 30.78 -3.24 20.64 -14.39 0 3.33 -20.64 -7.1 -30.78zm33.72 51.42l8.2 -51.42 13.31 0c6.45,0 11.09,0.93 13.92,2.78 2.83,1.86 4.24,4.88 4.24,9.05 0,3.38 -0.92,6.12 -2.76,8.21 -1.83,2.08 -4.59,3.54 -8.26,4.33 2.7,0.75 4.8,2.08 6.27,3.98 1.47,1.9 2.21,4.21 2.21,6.9 0,2.42 -0.51,4.7 -1.52,6.85 -1.01,2.15 -2.44,3.96 -4.28,5.41 -1.69,1.38 -3.69,2.38 -5.98,2.99 -2.3,0.61 -5.37,0.91 -9.2,0.91l-16.15 0zm15.93 -10.75c0.24,0.05 0.48,0.08 0.75,0.11 0.25,0.03 0.58,0.04 0.99,0.04 1.69,0 2.98,-0.57 3.86,-1.7 0.88,-1.13 1.33,-2.74 1.33,-4.86 0,-1.62 -0.4,-2.84 -1.2,-3.64 -0.8,-0.81 -2.01,-1.21 -3.63,-1.21l-0.42 0 -1.66 11.27zm3.18 -20.85c0.18,0.02 0.39,0.04 0.59,0.05 0.22,0.01 0.54,0.02 0.99,0.02 1.6,0 2.87,-0.46 3.8,-1.36 0.93,-0.9 1.4,-2.13 1.4,-3.68 0,-1.31 -0.37,-2.31 -1.11,-2.97 -0.75,-0.67 -1.83,-1.01 -3.27,-1.01 -0.12,0 -0.29,0.01 -0.49,0.04 -0.22,0.02 -0.37,0.04 -0.46,0.04l-1.45 8.87zm38 14.44c0,1.92 0.26,3.33 0.77,4.21 0.51,0.87 1.35,1.32 2.48,1.32 1,0 1.89,-0.4 2.63,-1.2 0.73,-0.79 1.4,-2.07 1.99,-3.83 0.78,-2.27 1.42,-5.03 1.89,-8.26 0.48,-3.22 0.72,-6.29 0.72,-9.2 0,-1.92 -0.25,-3.34 -0.75,-4.24 -0.49,-0.9 -1.25,-1.36 -2.29,-1.36 -1.11,0 -2.04,0.4 -2.81,1.18 -0.76,0.79 -1.41,2.04 -1.95,3.79 -0.78,2.37 -1.42,5.18 -1.93,8.45 -0.51,3.26 -0.76,6.31 -0.76,9.15zm1.74 18.18c-4.88,0 -8.81,-1.76 -11.77,-5.28 -2.96,-3.52 -4.45,-8.21 -4.45,-14.06 0,-4.77 0.61,-9.4 1.86,-13.91 1.23,-4.51 2.91,-8.3 5.03,-11.35 2.07,-2.96 4.47,-5.16 7.19,-6.61 2.72,-1.45 5.82,-2.19 9.31,-2.19 4.97,0 8.93,1.73 11.84,5.19 2.92,3.46 4.38,8.18 4.38,14.14 0,4.8 -0.62,9.41 -1.83,13.87 -1.23,4.47 -2.92,8.26 -5.05,11.39 -2,2.93 -4.38,5.13 -7.13,6.6 -2.74,1.47 -5.86,2.2 -9.37,2.2zm43.43 -29.52l0.77 0c2.2,0 3.88,-0.68 5.05,-2.06 1.18,-1.37 1.77,-3.35 1.77,-5.94 0,-1.48 -0.37,-2.56 -1.13,-3.27 -0.75,-0.71 -1.92,-1.06 -3.5,-1.06 -0.1,0 -0.25,0.01 -0.47,0.04 -0.23,0.02 -0.41,0.04 -0.55,0.04l-1.94 12.25zm-18.98 28.5l8.2 -51.42 12.16 0c7.63,0 12.9,1 15.77,2.99 2.88,1.99 4.33,5.4 4.33,10.22 0,4.2 -0.92,7.65 -2.74,10.35 -1.82,2.7 -4.45,4.48 -7.9,5.35l6.37 22.51 -15.27 0 -3.26 -20.78 -3.24 20.78 -14.42 0zm62.76 -29.73l18.44 0c-0.4,10.43 -2.4,18.16 -6,23.19 -3.61,5.04 -8.92,7.56 -15.97,7.56 -5.46,0 -9.64,-1.67 -12.49,-5.01 -2.86,-3.35 -4.29,-8.2 -4.29,-14.54 0,-4.95 0.6,-9.69 1.78,-14.16 1.19,-4.48 2.86,-8.3 5,-11.45 1.86,-2.74 4.18,-4.81 6.99,-6.22 2.8,-1.39 6.02,-2.09 9.65,-2.09 4.52,0 8.2,1.05 11.03,3.15 2.85,2.1 4.63,5.12 5.39,9.04l-13.25 4.88c-0.37,-1.61 -0.87,-2.74 -1.46,-3.39 -0.6,-0.64 -1.44,-0.96 -2.5,-0.96 -1.11,0 -2.08,0.39 -2.9,1.17 -0.83,0.77 -1.53,1.97 -2.12,3.58 -0.8,2.28 -1.51,5.21 -2.12,8.79 -0.61,3.58 -0.92,6.66 -0.92,9.25 0,1.97 0.28,3.37 0.83,4.17 0.56,0.8 1.48,1.21 2.81,1.21 1.63,0 2.92,-0.7 3.91,-2.08 0.98,-1.38 1.54,-3.35 1.71,-5.92l-4.92 0 1.39 -10.18z"/>
  <path class="fil16" d="M95.31 30.25l-1.67 0 -3.22 -14.7 2 0 2.06 9.98 2.07 -9.98 2 0 -3.24 14.7zm11.98 0l0 -14.7 5.88 0 0 1.77 -3.9 0 0 4.37 3.56 0 0 1.75 -3.56 0 0 4.97 3.9 0 0 1.84 -5.88 0zm17.23 -8.31l0.62 0c0.8,0 1.37,-0.19 1.71,-0.56 0.33,-0.37 0.5,-1.04 0.5,-1.99 0,-0.79 -0.16,-1.34 -0.48,-1.65 -0.32,-0.31 -0.92,-0.46 -1.79,-0.46l-0.56 0 0 4.66zm0 1.13l0 7.18 -1.98 0 0 -14.7 2.4 0c1.59,0 2.72,0.3 3.4,0.89 0.67,0.59 1.01,1.57 1.01,2.95 0,1.09 -0.23,1.94 -0.69,2.54 -0.46,0.61 -1.15,0.97 -2.07,1.08l3.49 7.24 -2.12 0 -3.36 -7.18 -0.06 0zm14.2 7.18l0 -14.7 5.88 0 0 1.77 -3.9 0 0 4.37 3.56 0 0 1.75 -3.56 0 0 4.97 3.9 0 0 1.84 -5.88 0zm18.48 -10.91l-1.33 6.37 2.65 0 -1.32 -6.37zm-4.38 10.91l3.44 -14.7 1.86 0 3.44 14.7 -2 0 -0.7 -2.89 -3.35 0 -0.68 2.89 -2 0zm19.5 -1.9l1.03 0c1.12,0 1.9,-0.4 2.36,-1.21 0.45,-0.81 0.68,-2.23 0.68,-4.28 0,-2.04 -0.22,-3.46 -0.67,-4.26 -0.45,-0.8 -1.24,-1.2 -2.36,-1.2l-1.03 0 0 10.95zm-2 1.9l0 -14.7 2.62 0c2,0 3.41,0.55 4.22,1.65 0.81,1.1 1.22,3 1.22,5.7 0,2.71 -0.41,4.61 -1.22,5.71 -0.81,1.1 -2.22,1.65 -4.22,1.65l-2.62 0zm19.05 -7.38c0,2.08 0.17,3.55 0.51,4.41 0.34,0.86 0.9,1.29 1.7,1.29 0.78,0 1.34,-0.41 1.66,-1.22 0.32,-0.81 0.48,-2.3 0.48,-4.47 0,-2.11 -0.16,-3.59 -0.49,-4.42 -0.33,-0.83 -0.88,-1.25 -1.67,-1.25 -0.79,0 -1.35,0.42 -1.69,1.26 -0.33,0.84 -0.5,2.31 -0.5,4.41zm-2 0.04c0,-2.69 0.33,-4.62 0.98,-5.8 0.66,-1.17 1.73,-1.76 3.21,-1.76 1.48,0 2.54,0.58 3.19,1.75 0.65,1.17 0.98,3.1 0.98,5.81 0,2.69 -0.33,4.62 -0.98,5.78 -0.65,1.16 -1.71,1.74 -3.19,1.74 -1.48,0 -2.55,-0.58 -3.21,-1.74 -0.65,-1.16 -0.98,-3.09 -0.98,-5.78zm19.82 -0.97l0.62 0c0.8,0 1.37,-0.19 1.71,-0.56 0.33,-0.37 0.5,-1.04 0.5,-1.99 0,-0.79 -0.16,-1.34 -0.48,-1.65 -0.32,-0.31 -0.92,-0.46 -1.79,-0.46l-0.56 0 0 4.66zm0 1.13l0 7.18 -1.98 0 0 -14.7 2.4 0c1.59,0 2.72,0.3 3.4,0.89 0.67,0.59 1.01,1.57 1.01,2.95 0,1.09 -0.23,1.94 -0.69,2.54 -0.46,0.61 -1.15,0.97 -2.07,1.08l3.49 7.24 -2.12 0 -3.36 -7.18 -0.06 0z"/>
 </g>
</svg>
